<svg id="svg" version="1.1" xmlns="http://www.w3.org/2000/svg" xmlns:xlink="http://www.w3.org/1999/xlink" width="400" height="400" viewBox="0, 0, 400,400"><g id="svgg"><path id="path0" d="M225.200 87.195 L 225.200 112.389 282.700 112.495 L 340.200 112.600 342.473 113.665 C 346.199 115.412,347.695 117.115,349.549 121.719 C 351.867 127.473,347.474 134.922,340.440 137.166 C 339.489 137.470,321.958 137.600,282.140 137.600 L 225.200 137.600 225.200 149.995 L 225.200 162.389 282.700 162.495 L 340.200 162.600 342.473 163.665 C 346.199 165.412,347.695 167.115,349.549 171.719 C 351.867 177.473,347.474 184.922,340.440 187.166 C 339.489 187.470,321.958 187.600,282.140 187.600 L 225.200 187.600 225.200 199.995 L 225.200 212.389 282.700 212.495 L 340.200 212.600 342.473 213.665 C 346.199 215.412,347.695 217.115,349.549 221.719 C 351.867 227.473,347.474 234.922,340.440 237.166 C 339.489 237.470,321.958 237.600,282.140 237.600 L 225.200 237.600 225.200 249.995 L 225.200 262.389 282.700 262.495 L 340.200 262.600 342.473 263.665 C 346.199 265.412,347.695 267.115,349.549 271.719 C 351.867 277.473,347.474 284.922,340.440 287.166 C 339.489 287.470,321.958 287.600,282.140 287.600 L 225.200 287.600 225.200 312.800 L 225.200 338.000 308.188 338.000 L 391.176 338.000 393.409 336.979 C 395.652 335.953,398.800 333.153,398.800 332.185 C 398.800 331.900,399.025 331.592,399.300 331.500 C 399.699 331.367,399.800 304.711,399.800 200.000 C 399.800 95.289,399.699 68.633,399.300 68.500 C 399.025 68.408,398.800 68.100,398.800 67.815 C 398.800 67.218,395.787 64.000,395.229 64.000 C 395.024 64.000,394.619 63.775,394.329 63.500 C 392.728 61.986,393.549 62.000,308.072 62.000 L 225.200 62.000 225.200 87.195 M158.143 138.412 C 152.729 140.548,150.578 144.229,149.617 153.000 C 149.376 155.200,149.009 158.530,148.800 160.400 C 148.592 162.270,148.228 165.600,147.992 167.800 C 147.756 170.000,147.388 173.330,147.175 175.200 C 146.370 182.273,146.008 185.521,145.594 189.400 C 145.359 191.600,145.003 194.750,144.802 196.400 C 144.602 198.050,144.219 201.421,143.951 203.892 C 143.353 209.404,143.455 209.515,139.641 199.200 C 138.054 194.910,136.603 191.040,136.416 190.600 C 136.229 190.160,135.519 188.315,134.838 186.500 C 134.157 184.685,133.072 181.805,132.427 180.100 C 131.782 178.395,129.680 172.770,127.755 167.600 C 125.831 162.430,123.929 157.722,123.528 157.138 C 123.128 156.554,122.800 155.901,122.800 155.686 C 122.800 154.947,119.373 152.490,117.389 151.807 C 110.076 149.290,102.917 152.411,100.432 159.200 C 100.150 159.970,99.775 160.960,99.598 161.400 C 98.880 163.185,96.646 169.145,92.998 179.000 C 89.248 189.132,87.057 194.976,86.400 196.600 C 86.222 197.040,85.519 198.885,84.838 200.700 C 84.157 202.515,83.059 205.395,82.398 207.100 C 81.737 208.805,81.197 210.425,81.198 210.700 C 81.206 212.607,80.161 210.817,79.827 208.351 C 77.239 189.260,74.643 172.178,74.097 170.643 C 70.462 160.422,55.886 159.890,51.343 169.813 C 49.672 173.462,49.660 174.653,51.205 184.000 C 51.404 185.210,51.765 187.730,52.005 189.600 C 52.245 191.470,52.606 194.080,52.806 195.400 C 53.006 196.720,53.349 199.060,53.567 200.600 C 54.369 206.267,55.242 212.253,56.017 217.400 C 56.216 218.720,57.742 229.610,59.408 241.600 C 62.621 264.727,63.210 267.521,65.449 270.274 C 69.758 275.571,77.987 276.329,83.027 271.893 C 85.720 269.522,86.039 268.850,91.624 253.800 C 93.419 248.960,95.336 243.830,95.883 242.400 C 96.430 240.970,97.418 238.360,98.077 236.600 C 98.737 234.840,99.422 233.040,99.599 232.600 C 99.777 232.160,100.282 230.810,100.721 229.600 C 101.557 227.301,103.183 222.956,105.175 217.700 C 105.821 215.995,107.647 211.135,109.233 206.900 C 112.234 198.882,112.703 198.209,113.549 200.700 C 113.829 201.525,114.585 203.595,115.229 205.300 C 115.873 207.005,116.940 209.840,117.600 211.600 C 118.260 213.360,119.329 216.195,119.976 217.900 C 120.623 219.605,123.423 227.120,126.199 234.600 C 128.974 242.080,131.398 248.560,131.585 249.000 C 131.771 249.440,132.498 251.330,133.200 253.200 C 133.902 255.070,134.622 256.960,134.799 257.400 C 134.977 257.840,135.514 259.280,135.993 260.600 C 136.472 261.920,137.030 263.313,137.232 263.695 C 137.434 264.077,137.600 264.594,137.600 264.845 C 137.600 265.096,138.157 266.398,138.839 267.739 C 143.976 277.849,158.773 276.788,161.779 266.094 C 162.346 264.079,163.032 258.851,164.391 246.200 C 164.914 241.340,165.516 236.023,166.000 232.000 C 166.199 230.350,166.557 227.020,166.797 224.600 C 167.037 222.180,167.397 218.940,167.597 217.400 C 167.797 215.860,168.157 212.710,168.398 210.400 C 168.909 205.480,169.495 200.205,169.997 196.000 C 170.194 194.350,170.552 191.110,170.793 188.800 C 171.034 186.490,171.396 183.160,171.597 181.400 C 172.538 173.170,172.870 170.218,173.420 165.200 C 173.745 162.230,174.210 158.004,174.453 155.809 C 175.508 146.256,173.875 141.990,168.000 138.947 C 165.085 137.438,161.153 137.224,158.143 138.412 " stroke="none" fill="#efeff5" fill-rule="evenodd"></path><path id="path1" d="M225.000 200.200 C 225.000 276.100,225.046 326.815,225.103 312.900 L 225.206 287.600 282.143 287.600 C 321.959 287.600,339.489 287.470,340.440 287.166 C 347.474 284.922,351.867 277.473,349.549 271.719 C 347.695 267.115,346.199 265.412,342.473 263.665 L 340.200 262.600 282.700 262.495 L 225.200 262.389 225.200 249.995 L 225.200 237.600 282.140 237.600 C 321.958 237.600,339.489 237.470,340.440 237.166 C 347.474 234.922,351.867 227.473,349.549 221.719 C 347.695 217.115,346.199 215.412,342.473 213.665 L 340.200 212.600 282.700 212.495 L 225.200 212.389 225.200 199.995 L 225.200 187.600 282.140 187.600 C 321.958 187.600,339.489 187.470,340.440 187.166 C 347.474 184.922,351.867 177.473,349.549 171.719 C 347.695 167.115,346.199 165.412,342.473 163.665 L 340.200 162.600 282.700 162.495 L 225.200 162.389 225.200 149.995 L 225.200 137.600 282.140 137.600 C 321.958 137.600,339.489 137.470,340.440 137.166 C 347.474 134.922,351.867 127.473,349.549 121.719 C 347.695 117.115,346.199 115.412,342.473 113.665 L 340.200 112.600 282.703 112.495 L 225.206 112.389 225.103 87.295 C 225.046 73.493,225.000 124.300,225.000 200.200 M158.400 137.563 C 158.070 137.737,157.319 138.132,156.730 138.440 C 152.008 140.913,150.048 144.286,149.199 151.400 C 147.376 166.679,145.986 180.054,146.040 181.800 L 146.089 183.400 146.397 181.600 C 146.566 180.610,146.912 177.820,147.167 175.400 C 147.421 172.980,147.808 169.380,148.028 167.400 C 148.838 160.088,149.190 156.905,149.617 153.000 C 149.858 150.800,150.232 148.280,150.447 147.400 C 153.193 136.184,167.570 134.041,173.323 143.991 L 174.600 146.200 174.556 152.200 C 174.531 155.500,174.653 157.840,174.827 157.400 C 176.104 154.171,175.008 144.917,173.064 142.516 C 171.741 140.883,169.437 138.800,168.952 138.800 C 168.648 138.800,168.400 138.620,168.400 138.400 C 168.400 138.180,168.051 138.000,167.624 138.000 C 167.197 138.000,166.736 137.820,166.600 137.600 C 166.310 137.130,159.281 137.099,158.400 137.563 M108.400 150.780 C 108.070 150.963,106.990 151.502,106.000 151.978 C 102.235 153.786,101.053 155.606,97.797 164.600 C 95.771 170.200,95.301 171.418,94.753 172.495 C 94.559 172.877,94.400 173.552,94.400 173.995 C 94.400 174.438,94.220 174.800,94.000 174.800 C 93.780 174.800,93.610 175.295,93.622 175.900 C 93.643 176.950,94.305 175.387,98.070 165.400 C 98.733 163.640,99.421 161.840,99.598 161.400 C 99.775 160.960,100.150 159.970,100.432 159.200 C 102.917 152.411,110.076 149.290,117.389 151.807 C 119.373 152.490,122.800 154.947,122.800 155.686 C 122.800 155.901,123.128 156.554,123.528 157.138 C 123.929 157.722,125.831 162.430,127.755 167.600 C 129.680 172.770,131.782 178.395,132.427 180.100 C 133.072 181.805,134.157 184.685,134.838 186.500 C 135.519 188.315,136.229 190.160,136.416 190.600 C 136.603 191.040,138.054 194.910,139.641 199.200 C 142.752 207.614,143.600 209.386,143.600 207.476 C 143.600 206.866,143.332 206.272,143.000 206.145 C 142.670 206.018,142.400 205.584,142.400 205.181 C 142.400 204.777,142.220 204.336,142.000 204.200 C 141.780 204.064,141.600 203.601,141.600 203.171 C 141.600 202.741,141.441 202.077,141.247 201.695 C 140.714 200.647,140.291 199.550,137.819 192.800 C 134.546 183.865,133.971 182.318,133.507 181.200 C 133.279 180.650,132.916 179.750,132.700 179.200 C 132.484 178.650,132.148 177.887,131.953 177.505 C 131.759 177.123,131.600 176.536,131.600 176.200 C 131.600 175.864,131.441 175.277,131.247 174.895 C 131.052 174.513,130.671 173.660,130.400 173.000 C 130.129 172.340,129.748 171.487,129.553 171.105 C 129.359 170.723,129.200 170.048,129.200 169.605 C 129.200 169.162,129.020 168.800,128.800 168.800 C 128.580 168.800,128.400 168.438,128.400 167.995 C 128.400 167.552,128.220 166.832,128.000 166.395 C 127.780 165.958,127.420 165.242,127.200 164.805 C 126.980 164.368,126.800 163.648,126.800 163.205 C 126.800 162.762,126.620 162.400,126.400 162.400 C 126.180 162.400,126.000 161.950,126.000 161.400 C 126.000 160.850,125.820 160.400,125.600 160.400 C 125.380 160.400,125.200 160.076,125.200 159.680 C 125.200 158.786,124.306 156.807,123.900 156.803 C 123.735 156.801,123.600 156.544,123.600 156.231 C 123.600 155.400,120.459 152.456,118.814 151.744 C 118.036 151.408,117.087 150.968,116.705 150.766 C 115.846 150.313,109.222 150.324,108.400 150.780 M173.845 161.318 C 173.657 163.033,173.603 164.536,173.726 164.659 C 174.099 165.032,174.460 162.321,174.320 160.199 C 174.195 158.309,174.170 158.369,173.845 161.318 M56.717 163.417 C 51.823 165.966,49.790 169.498,49.821 175.400 C 49.839 179.025,50.050 181.001,51.226 188.600 C 51.431 189.920,51.783 192.350,52.010 194.000 C 52.407 196.889,52.707 198.981,53.589 205.000 C 53.815 206.540,54.101 208.880,54.225 210.200 C 54.348 211.520,54.611 212.960,54.807 213.400 C 55.003 213.840,55.256 215.190,55.369 216.400 C 55.481 217.610,55.766 219.950,56.002 221.600 C 56.238 223.250,56.529 225.680,56.649 227.000 C 56.769 228.320,57.032 229.571,57.234 229.780 C 57.435 229.989,57.600 231.283,57.600 232.656 C 57.600 234.029,57.780 235.264,58.000 235.400 C 58.220 235.536,58.400 235.352,58.400 234.992 C 58.400 234.274,56.386 219.721,55.190 211.800 C 54.804 209.240,54.212 205.156,53.567 200.600 C 53.349 199.060,53.006 196.720,52.806 195.400 C 52.606 194.080,52.245 191.470,52.005 189.600 C 51.765 187.730,51.404 185.210,51.205 184.000 C 49.660 174.653,49.672 173.462,51.343 169.813 C 52.891 166.431,55.497 164.217,59.366 162.995 C 60.897 162.511,60.925 162.478,59.800 162.458 C 59.140 162.447,57.753 162.878,56.717 163.417 M65.676 162.988 C 71.239 164.520,73.899 168.042,75.201 175.600 C 75.921 179.772,75.926 179.784,75.963 177.324 C 75.983 175.962,75.820 174.736,75.600 174.600 C 75.380 174.464,75.200 173.731,75.200 172.972 C 75.200 168.664,69.204 162.348,65.200 162.440 C 63.822 162.471,63.829 162.479,65.676 162.988 M173.056 168.323 C 172.867 170.151,172.811 171.744,172.931 171.864 C 173.306 172.240,173.656 169.496,173.524 167.200 C 173.402 165.063,173.389 165.096,173.056 168.323 M172.263 175.800 C 172.093 177.340,171.798 179.860,171.607 181.400 C 171.416 182.940,171.057 186.180,170.810 188.600 C 170.564 191.020,170.199 194.350,170.000 196.000 C 169.511 200.062,168.924 205.343,168.398 210.400 C 168.157 212.710,167.797 215.860,167.597 217.400 C 167.397 218.940,167.037 222.180,166.797 224.600 C 166.557 227.020,166.199 230.350,166.000 232.000 C 165.516 236.023,164.914 241.340,164.391 246.200 C 163.032 258.851,162.346 264.079,161.779 266.094 C 158.773 276.788,143.976 277.849,138.839 267.739 C 138.157 266.398,137.600 265.096,137.600 264.845 C 137.600 264.594,137.434 264.077,137.232 263.695 C 137.030 263.313,136.472 261.920,135.993 260.600 C 135.514 259.280,134.977 257.840,134.799 257.400 C 134.622 256.960,133.902 255.070,133.200 253.200 C 132.498 251.330,131.771 249.440,131.583 249.000 C 131.396 248.560,130.388 245.876,129.343 243.036 C 128.298 240.196,127.367 238.099,127.275 238.376 C 127.183 238.652,127.284 239.266,127.500 239.739 C 128.173 241.214,128.641 242.438,130.579 247.800 C 131.613 250.660,132.607 253.360,132.789 253.800 C 132.971 254.240,133.336 255.230,133.600 256.000 C 133.864 256.770,134.243 257.805,134.440 258.300 C 134.638 258.795,134.962 259.605,135.160 260.100 C 135.357 260.595,135.736 261.630,136.000 262.400 C 137.074 265.528,138.830 269.325,139.300 269.533 C 139.465 269.607,139.602 269.877,139.604 270.133 C 139.606 270.390,140.177 271.050,140.874 271.600 C 141.571 272.150,142.334 272.780,142.570 273.000 C 144.596 274.886,152.922 276.221,153.800 274.800 C 153.936 274.580,154.442 274.398,154.924 274.395 C 156.416 274.385,161.200 270.118,161.200 268.795 C 161.200 268.578,161.360 268.400,161.555 268.400 C 161.750 268.400,162.026 267.815,162.170 267.100 C 162.313 266.385,162.616 264.900,162.843 263.800 C 163.243 261.863,163.532 259.595,164.396 251.600 C 164.622 249.510,164.976 246.360,165.183 244.600 C 165.542 241.533,166.041 237.082,166.797 230.200 C 166.991 228.440,167.340 225.335,167.574 223.300 C 167.979 219.784,168.222 217.559,169.157 208.800 C 169.380 206.710,169.652 204.370,169.760 203.600 C 169.869 202.830,170.151 200.400,170.387 198.200 C 170.623 196.000,171.275 190.031,171.836 184.935 C 172.397 179.840,172.792 175.070,172.714 174.335 C 172.613 173.396,172.480 173.831,172.263 175.800 M92.800 177.976 C 92.800 178.403,92.620 178.864,92.400 179.000 C 92.180 179.136,92.000 179.687,92.000 180.224 C 92.000 180.761,91.820 181.200,91.600 181.200 C 91.380 181.200,91.200 181.562,91.200 182.005 C 91.200 182.448,91.041 183.123,90.847 183.505 C 90.652 183.887,90.271 184.740,90.000 185.400 C 89.729 186.060,89.348 186.913,89.153 187.295 C 88.959 187.677,88.800 188.352,88.800 188.795 C 88.800 189.238,88.620 189.600,88.400 189.600 C 88.180 189.600,88.000 189.962,88.000 190.405 C 88.000 191.183,87.858 191.569,86.862 193.495 C 86.608 193.987,86.400 194.752,86.400 195.195 C 86.400 195.638,86.259 196.000,86.087 196.000 C 85.915 196.000,85.525 196.855,85.220 197.900 C 84.915 198.945,84.537 200.070,84.379 200.400 C 83.499 202.247,81.695 207.120,81.352 208.577 L 81.075 209.754 80.671 208.777 C 80.449 208.240,80.117 206.585,79.934 205.100 C 79.750 203.615,79.413 201.095,79.184 199.500 C 78.956 197.905,78.671 195.520,78.551 194.200 C 78.431 192.880,78.168 191.629,77.966 191.420 C 77.765 191.211,77.600 189.917,77.600 188.544 C 77.600 187.171,77.420 185.936,77.200 185.800 C 76.622 185.443,76.659 185.849,78.196 196.723 C 78.963 202.155,79.698 207.388,79.828 208.351 C 80.161 210.816,81.206 212.608,81.198 210.700 C 81.197 210.425,81.737 208.805,82.398 207.100 C 83.059 205.395,84.157 202.515,84.838 200.700 C 85.519 198.885,86.222 197.040,86.400 196.600 C 86.856 195.474,88.784 190.361,91.228 183.800 C 92.375 180.720,93.397 177.975,93.499 177.700 C 93.602 177.425,93.486 177.200,93.243 177.200 C 92.999 177.200,92.800 177.549,92.800 177.976 M76.030 180.876 C 76.046 181.384,76.203 182.610,76.380 183.600 L 76.700 185.400 76.750 182.924 C 76.777 181.562,76.620 180.336,76.400 180.200 C 76.175 180.061,76.013 180.357,76.030 180.876 M145.505 185.200 C 145.343 185.750,145.230 187.280,145.252 188.600 L 145.294 191.000 145.661 188.800 C 146.107 186.135,145.994 183.540,145.505 185.200 M144.700 192.133 C 144.535 192.536,144.421 194.066,144.447 195.533 L 144.494 198.200 144.861 196.000 C 145.290 193.436,145.186 190.945,144.700 192.133 M143.905 199.200 C 143.743 199.750,143.630 201.370,143.654 202.800 L 143.698 205.400 144.057 203.000 C 144.492 200.094,144.391 197.553,143.905 199.200 M109.233 206.900 C 107.647 211.135,105.821 215.995,105.175 217.700 C 103.183 222.956,101.557 227.301,100.721 229.600 C 100.282 230.810,99.777 232.160,99.599 232.600 C 99.422 233.040,98.737 234.840,98.077 236.600 C 97.418 238.360,96.430 240.970,95.883 242.400 C 95.336 243.830,93.419 248.960,91.624 253.800 C 86.039 268.850,85.720 269.522,83.027 271.893 C 76.642 277.513,66.027 274.590,63.387 266.484 C 62.576 263.994,62.070 263.998,62.772 266.489 C 64.519 272.678,73.916 277.487,79.105 274.847 C 79.487 274.652,80.340 274.247,81.000 273.947 C 84.268 272.458,86.371 269.536,88.592 263.400 C 89.389 261.200,90.211 259.087,90.420 258.705 C 90.629 258.323,90.800 257.648,90.800 257.205 C 90.800 256.762,90.980 256.400,91.200 256.400 C 91.420 256.400,91.600 256.038,91.600 255.595 C 91.600 254.817,91.742 254.431,92.738 252.505 C 92.992 252.013,93.200 251.248,93.200 250.805 C 93.200 250.362,93.380 250.000,93.600 250.000 C 93.820 250.000,94.000 249.638,94.000 249.195 C 94.000 248.752,94.159 248.077,94.353 247.695 C 94.548 247.313,94.929 246.460,95.200 245.800 C 95.471 245.140,95.852 244.287,96.047 243.905 C 96.241 243.523,96.400 242.848,96.400 242.405 C 96.400 241.962,96.580 241.600,96.800 241.600 C 97.020 241.600,97.200 241.238,97.200 240.795 C 97.200 240.352,97.359 239.677,97.553 239.295 C 98.204 238.015,99.188 235.564,100.000 233.200 C 100.264 232.430,100.667 231.350,100.894 230.800 C 101.488 229.363,101.821 228.481,102.710 226.000 C 103.144 224.790,104.167 222.000,104.984 219.800 C 105.801 217.600,106.652 215.260,106.875 214.600 C 107.374 213.124,107.979 211.625,108.447 210.705 C 108.641 210.323,108.800 209.648,108.800 209.205 C 108.800 208.762,108.980 208.400,109.200 208.400 C 109.420 208.400,109.600 207.950,109.600 207.400 C 109.600 206.850,109.780 206.400,110.000 206.400 C 110.220 206.400,110.400 206.038,110.400 205.595 C 110.400 205.152,110.580 204.432,110.800 203.995 C 111.020 203.558,111.380 202.842,111.600 202.405 C 111.820 201.968,112.000 201.248,112.000 200.805 C 112.000 199.264,112.698 200.016,113.573 202.500 C 114.401 204.849,116.484 210.423,117.198 212.200 C 117.375 212.640,117.736 213.630,118.000 214.400 C 118.264 215.170,118.643 216.205,118.840 216.700 C 119.765 219.015,120.120 219.851,120.447 220.495 C 120.641 220.877,120.800 221.552,120.800 221.995 C 120.800 222.438,120.980 222.800,121.200 222.800 C 121.420 222.800,121.600 223.162,121.600 223.605 C 121.600 224.383,121.742 224.769,122.738 226.695 C 122.992 227.187,123.200 227.952,123.200 228.395 C 123.200 228.838,123.380 229.200,123.600 229.200 C 123.820 229.200,124.000 229.562,124.000 230.005 C 124.000 230.448,124.159 231.123,124.353 231.505 C 124.548 231.887,124.929 232.740,125.200 233.400 C 125.471 234.060,125.852 234.913,126.047 235.295 C 126.241 235.677,126.400 236.352,126.400 236.795 C 126.400 237.238,126.580 237.600,126.800 237.600 C 127.391 237.600,127.006 236.489,119.973 217.900 C 119.328 216.195,118.260 213.360,117.600 211.600 C 116.940 209.840,115.873 207.005,115.229 205.300 C 114.585 203.595,113.829 201.525,113.549 200.700 C 112.703 198.209,112.234 198.882,109.233 206.900 M58.443 238.276 C 58.420 239.638,58.580 240.864,58.800 241.000 C 59.020 241.136,59.200 242.306,59.200 243.600 C 59.200 244.894,59.380 246.064,59.600 246.200 C 60.148 246.539,60.073 245.349,59.217 240.200 C 58.506 235.916,58.486 235.865,58.443 238.276 M60.006 249.033 C 60.009 250.335,60.198 251.670,60.425 252.000 C 60.715 252.423,60.758 251.772,60.569 249.800 C 60.233 246.280,59.998 245.961,60.006 249.033 M60.852 254.800 C 60.830 256.010,60.987 257.270,61.200 257.600 C 61.692 258.362,61.705 256.529,61.223 254.200 L 60.892 252.600 60.852 254.800 M61.674 260.200 C 61.664 261.300,61.811 262.560,62.000 263.000 C 62.471 264.095,62.485 262.036,62.023 259.800 L 61.692 258.200 61.674 260.200 " stroke="none" fill="#1c74d4" fill-rule="evenodd"></path><path id="path2" d="M207.175 12.390 C 206.832 12.591,205.707 12.799,204.675 12.852 C 203.644 12.906,202.800 13.096,202.800 13.275 C 202.800 13.454,201.911 13.600,200.824 13.600 C 199.737 13.600,198.736 13.780,198.600 14.000 C 198.464 14.220,197.463 14.400,196.376 14.400 C 195.289 14.400,194.400 14.580,194.400 14.800 C 194.400 15.020,193.500 15.200,192.400 15.200 C 191.300 15.200,190.400 15.380,190.400 15.600 C 190.400 15.820,189.500 16.000,188.400 16.000 C 187.300 16.000,186.400 16.180,186.400 16.400 C 186.400 16.620,185.421 16.800,184.224 16.800 C 183.027 16.800,181.936 16.980,181.800 17.200 C 181.664 17.420,180.789 17.600,179.856 17.600 C 178.923 17.600,177.989 17.763,177.780 17.961 C 177.417 18.306,175.923 18.557,171.300 19.050 C 170.145 19.173,169.200 19.437,169.200 19.637 C 169.200 19.837,168.300 20.000,167.200 20.000 C 166.100 20.000,165.200 20.180,165.200 20.400 C 165.200 20.620,164.390 20.800,163.400 20.800 C 162.410 20.800,161.600 20.949,161.600 21.132 C 161.600 21.314,160.565 21.504,159.300 21.554 C 158.035 21.604,156.940 21.815,156.867 22.022 C 156.793 22.230,155.848 22.400,154.767 22.400 C 153.685 22.400,152.800 22.580,152.800 22.800 C 152.800 23.020,151.799 23.200,150.576 23.200 C 149.196 23.200,148.447 23.352,148.600 23.600 C 148.753 23.848,148.004 24.000,146.624 24.000 C 145.401 24.000,144.400 24.180,144.400 24.400 C 144.400 24.620,143.500 24.800,142.400 24.800 C 141.300 24.800,140.400 24.980,140.400 25.200 C 140.400 25.420,139.421 25.600,138.224 25.600 C 137.027 25.600,135.936 25.780,135.800 26.000 C 135.664 26.220,134.653 26.400,133.553 26.400 C 132.453 26.400,131.648 26.554,131.764 26.742 C 131.931 27.012,128.338 27.488,124.500 27.705 C 124.225 27.721,124.000 27.867,124.000 28.030 C 124.000 28.193,123.055 28.425,121.900 28.545 C 118.006 28.951,116.204 29.244,115.400 29.600 C 114.653 29.931,113.844 30.068,109.200 30.651 C 108.210 30.776,107.229 31.040,107.020 31.239 C 106.811 31.437,105.776 31.600,104.720 31.600 C 103.664 31.600,102.800 31.780,102.800 32.000 C 102.800 32.220,101.911 32.400,100.824 32.400 C 99.737 32.400,98.736 32.580,98.600 32.800 C 98.464 33.020,97.463 33.200,96.376 33.200 C 95.289 33.200,94.400 33.380,94.400 33.600 C 94.400 33.820,93.500 34.000,92.400 34.000 C 91.300 34.000,90.400 34.180,90.400 34.400 C 90.400 34.620,89.500 34.800,88.400 34.800 C 87.300 34.800,86.400 34.980,86.400 35.200 C 86.400 35.420,85.421 35.600,84.224 35.600 C 83.027 35.600,81.936 35.780,81.800 36.000 C 81.664 36.220,80.764 36.400,79.800 36.400 C 78.836 36.400,77.936 36.580,77.800 36.800 C 77.664 37.020,76.674 37.200,75.600 37.200 C 74.526 37.200,73.536 37.380,73.400 37.600 C 73.264 37.820,72.263 38.000,71.176 38.000 C 70.089 38.000,69.200 38.180,69.200 38.400 C 69.200 38.620,68.300 38.800,67.200 38.800 C 66.100 38.800,65.200 38.980,65.200 39.200 C 65.200 39.420,64.401 39.600,63.424 39.600 C 62.447 39.600,61.536 39.780,61.400 40.000 C 61.264 40.220,60.274 40.400,59.200 40.400 C 58.126 40.400,57.136 40.580,57.000 40.800 C 56.864 41.020,55.863 41.200,54.776 41.200 C 53.689 41.200,52.800 41.380,52.800 41.600 C 52.800 41.820,51.765 42.003,50.500 42.006 C 48.867 42.010,48.374 42.125,48.800 42.400 C 49.223 42.673,48.662 42.790,46.900 42.794 C 45.525 42.797,44.400 42.959,44.400 43.152 C 44.400 43.346,42.645 43.635,40.500 43.793 C 38.355 43.952,36.420 44.223,36.200 44.397 C 35.824 44.694,34.203 44.973,30.000 45.466 C 29.010 45.583,28.029 45.840,27.820 46.039 C 27.611 46.237,26.767 46.400,25.944 46.400 C 25.121 46.400,24.356 46.547,24.245 46.728 C 24.133 46.908,23.088 47.098,21.921 47.150 C 20.755 47.202,19.740 47.414,19.667 47.622 C 19.593 47.830,18.659 48.000,17.590 48.000 C 16.522 48.000,15.536 48.180,15.400 48.400 C 15.264 48.620,14.274 48.800,13.200 48.800 C 12.126 48.800,11.136 48.980,11.000 49.200 C 10.864 49.420,10.144 49.600,9.400 49.600 C 8.656 49.600,7.936 49.780,7.800 50.000 C 7.664 50.220,7.243 50.400,6.865 50.400 C 6.486 50.400,5.917 50.760,5.600 51.200 C 5.283 51.640,4.838 52.000,4.612 52.000 C 3.906 52.001,2.000 53.860,2.000 54.547 C 2.000 54.906,1.841 55.200,1.646 55.200 C -0.071 55.200,0.000 48.964,0.000 200.000 C 0.000 351.036,-0.071 344.800,1.646 344.800 C 1.841 344.800,2.000 345.094,2.000 345.453 C 2.000 346.140,3.906 347.999,4.612 348.000 C 4.838 348.000,5.283 348.360,5.600 348.800 C 5.917 349.240,6.587 349.600,7.088 349.600 C 7.590 349.600,8.000 349.780,8.000 350.000 C 8.000 350.220,8.619 350.400,9.376 350.400 C 10.133 350.400,10.864 350.580,11.000 350.800 C 11.136 351.020,12.137 351.200,13.224 351.200 C 14.311 351.200,15.200 351.380,15.200 351.600 C 15.200 351.820,16.064 352.000,17.120 352.000 C 18.176 352.000,19.211 352.170,19.420 352.377 C 19.629 352.585,20.745 352.797,21.900 352.849 C 23.055 352.901,24.000 353.091,24.000 353.271 C 24.000 353.452,24.799 353.600,25.776 353.600 C 26.753 353.600,27.664 353.780,27.800 354.000 C 27.936 354.220,28.836 354.400,29.800 354.400 C 30.764 354.400,31.644 354.547,31.755 354.728 C 31.867 354.908,32.912 355.098,34.079 355.150 C 35.245 355.202,36.260 355.414,36.333 355.622 C 36.407 355.830,37.341 356.000,38.410 356.000 C 39.478 356.000,40.464 356.180,40.600 356.400 C 40.736 356.620,41.611 356.800,42.544 356.800 C 43.477 356.800,44.411 356.963,44.620 357.161 C 45.014 357.536,45.818 357.665,52.700 358.463 C 54.955 358.724,56.800 359.087,56.800 359.269 C 56.800 359.451,57.925 359.603,59.300 359.606 C 61.062 359.610,61.623 359.727,61.200 360.000 C 60.774 360.275,61.267 360.390,62.900 360.394 C 64.165 360.397,65.200 360.580,65.200 360.800 C 65.200 361.020,66.100 361.200,67.200 361.200 C 68.300 361.200,69.200 361.380,69.200 361.600 C 69.200 361.820,70.089 362.000,71.176 362.000 C 72.263 362.000,73.264 362.180,73.400 362.400 C 73.536 362.620,74.526 362.800,75.600 362.800 C 76.674 362.800,77.664 362.980,77.800 363.200 C 77.936 363.420,78.836 363.600,79.800 363.600 C 80.764 363.600,81.664 363.780,81.800 364.000 C 81.936 364.220,82.836 364.400,83.800 364.400 C 84.764 364.400,85.664 364.580,85.800 364.800 C 85.936 365.020,87.027 365.200,88.224 365.200 C 89.421 365.200,90.400 365.380,90.400 365.600 C 90.400 365.820,91.300 366.000,92.400 366.000 C 93.500 366.000,94.400 366.180,94.400 366.400 C 94.400 366.620,95.379 366.800,96.576 366.800 C 97.773 366.800,98.864 366.980,99.000 367.200 C 99.136 367.420,100.047 367.600,101.024 367.600 C 102.001 367.600,102.800 367.780,102.800 368.000 C 102.800 368.220,103.700 368.400,104.800 368.400 C 105.900 368.400,106.800 368.580,106.800 368.800 C 106.800 369.020,107.689 369.200,108.776 369.200 C 109.863 369.200,110.864 369.380,111.000 369.600 C 111.136 369.820,112.137 370.000,113.224 370.000 C 114.311 370.000,115.200 370.180,115.200 370.400 C 115.200 370.620,116.175 370.800,117.367 370.800 C 118.558 370.800,119.593 370.970,119.667 371.178 C 119.740 371.386,120.755 371.598,121.921 371.650 C 123.088 371.702,124.133 371.892,124.245 372.072 C 124.356 372.253,125.121 372.400,125.944 372.400 C 126.767 372.400,127.611 372.563,127.820 372.761 C 128.029 372.960,129.010 373.217,130.000 373.334 C 134.203 373.827,135.824 374.106,136.200 374.403 C 136.420 374.577,138.355 374.848,140.500 375.007 C 142.645 375.165,144.400 375.454,144.400 375.648 C 144.400 375.841,145.525 376.003,146.900 376.006 C 148.662 376.010,149.223 376.127,148.800 376.400 C 148.374 376.675,148.867 376.790,150.500 376.794 C 151.765 376.797,152.800 376.980,152.800 377.200 C 152.800 377.420,153.689 377.600,154.776 377.600 C 155.863 377.600,156.864 377.780,157.000 378.000 C 157.136 378.220,158.126 378.400,159.200 378.400 C 160.274 378.400,161.264 378.580,161.400 378.800 C 161.536 379.020,162.447 379.200,163.424 379.200 C 164.401 379.200,165.200 379.380,165.200 379.600 C 165.200 379.820,166.100 380.000,167.200 380.000 C 168.300 380.000,169.200 380.180,169.200 380.400 C 169.200 380.620,170.089 380.800,171.176 380.800 C 172.263 380.800,173.264 380.980,173.400 381.200 C 173.536 381.420,174.526 381.600,175.600 381.600 C 176.674 381.600,177.664 381.780,177.800 382.000 C 177.936 382.220,178.836 382.400,179.800 382.400 C 180.764 382.400,181.664 382.580,181.800 382.800 C 181.936 383.020,183.027 383.200,184.224 383.200 C 185.421 383.200,186.400 383.380,186.400 383.600 C 186.400 383.820,187.300 384.000,188.400 384.000 C 189.500 384.000,190.400 384.180,190.400 384.400 C 190.400 384.620,191.300 384.800,192.400 384.800 C 193.500 384.800,194.400 384.980,194.400 385.200 C 194.400 385.420,195.289 385.600,196.376 385.600 C 197.463 385.600,198.464 385.780,198.600 386.000 C 198.736 386.220,199.737 386.400,200.824 386.400 C 201.911 386.400,202.800 386.580,202.800 386.800 C 202.800 387.020,203.689 387.200,204.776 387.200 C 205.863 387.200,206.864 387.380,207.000 387.600 C 207.471 388.362,216.935 388.101,217.845 387.300 C 218.956 386.323,220.284 385.600,220.968 385.600 C 221.286 385.600,221.660 385.240,221.800 384.800 C 221.940 384.360,222.198 384.000,222.374 384.000 C 222.550 384.000,223.207 383.235,223.835 382.300 L 224.976 380.600 225.007 200.600 C 225.025 101.600,224.940 20.218,224.820 19.751 C 224.615 18.958,224.141 18.217,222.247 15.729 C 221.834 15.185,221.114 14.564,220.647 14.350 C 220.181 14.135,219.080 13.533,218.200 13.012 C 216.487 11.998,208.605 11.553,207.175 12.390 M166.600 137.600 C 166.736 137.820,167.197 138.000,167.624 138.000 C 168.051 138.000,168.400 138.180,168.400 138.400 C 168.400 138.620,168.648 138.800,168.952 138.800 C 169.438 138.800,171.727 140.870,173.080 142.533 C 175.289 145.249,175.687 150.561,174.435 160.600 C 173.889 164.971,173.324 170.185,172.851 175.200 C 172.633 177.510,172.178 181.740,171.840 184.600 C 171.502 187.460,171.025 191.780,170.779 194.200 C 170.533 196.620,170.169 200.040,169.969 201.800 C 169.270 207.947,168.748 212.626,168.376 216.100 C 168.169 218.025,167.808 221.265,167.574 223.300 C 167.340 225.335,166.991 228.440,166.797 230.200 C 166.041 237.082,165.542 241.533,165.183 244.600 C 164.976 246.360,164.622 249.510,164.396 251.600 C 163.532 259.595,163.243 261.863,162.843 263.800 C 162.616 264.900,162.313 266.385,162.170 267.100 C 162.026 267.815,161.750 268.400,161.555 268.400 C 161.360 268.400,161.200 268.578,161.200 268.795 C 161.200 270.118,156.416 274.385,154.924 274.395 C 154.442 274.398,153.936 274.580,153.800 274.800 C 152.922 276.221,144.596 274.886,142.570 273.000 C 142.334 272.780,141.571 272.150,140.874 271.600 C 140.177 271.050,139.606 270.390,139.604 270.133 C 139.602 269.877,139.465 269.607,139.300 269.533 C 138.830 269.325,137.074 265.528,136.000 262.400 C 135.736 261.630,135.333 260.550,135.106 260.000 C 134.512 258.562,134.146 257.589,133.600 256.000 C 133.336 255.230,132.971 254.240,132.789 253.800 C 132.607 253.360,131.613 250.660,130.579 247.800 C 128.484 242.004,128.066 240.913,127.553 239.905 C 127.359 239.523,127.200 238.848,127.200 238.405 C 127.200 237.962,127.020 237.600,126.800 237.600 C 126.580 237.600,126.400 237.238,126.400 236.795 C 126.400 236.352,126.241 235.677,126.047 235.295 C 125.852 234.913,125.471 234.060,125.200 233.400 C 124.929 232.740,124.548 231.887,124.353 231.505 C 124.159 231.123,124.000 230.448,124.000 230.005 C 124.000 229.562,123.820 229.200,123.600 229.200 C 123.380 229.200,123.200 228.838,123.200 228.395 C 123.200 227.952,122.992 227.187,122.738 226.695 C 121.742 224.769,121.600 224.383,121.600 223.605 C 121.600 223.162,121.420 222.800,121.200 222.800 C 120.980 222.800,120.800 222.438,120.800 221.995 C 120.800 221.552,120.641 220.877,120.447 220.495 C 120.120 219.851,119.765 219.015,118.840 216.700 C 118.643 216.205,118.264 215.170,118.000 214.400 C 117.736 213.630,117.375 212.640,117.198 212.200 C 116.484 210.423,114.401 204.849,113.573 202.500 C 112.698 200.016,112.000 199.264,112.000 200.805 C 112.000 201.583,111.858 201.969,110.862 203.895 C 110.608 204.387,110.400 205.152,110.400 205.595 C 110.400 206.038,110.220 206.400,110.000 206.400 C 109.780 206.400,109.600 206.850,109.600 207.400 C 109.600 207.950,109.420 208.400,109.200 208.400 C 108.980 208.400,108.800 208.762,108.800 209.205 C 108.800 209.648,108.641 210.323,108.447 210.705 C 107.979 211.625,107.374 213.124,106.875 214.600 C 106.652 215.260,105.801 217.600,104.984 219.800 C 104.167 222.000,103.144 224.790,102.710 226.000 C 102.277 227.210,101.735 228.650,101.507 229.200 C 100.917 230.623,100.549 231.600,100.000 233.200 C 99.188 235.564,98.204 238.015,97.553 239.295 C 97.359 239.677,97.200 240.352,97.200 240.795 C 97.200 241.238,97.020 241.600,96.800 241.600 C 96.580 241.600,96.400 241.962,96.400 242.405 C 96.400 242.848,96.241 243.523,96.047 243.905 C 95.852 244.287,95.471 245.140,95.200 245.800 C 94.929 246.460,94.548 247.313,94.353 247.695 C 94.159 248.077,94.000 248.752,94.000 249.195 C 94.000 249.638,93.820 250.000,93.600 250.000 C 93.380 250.000,93.200 250.362,93.200 250.805 C 93.200 251.248,93.020 251.968,92.800 252.405 C 92.580 252.842,92.220 253.558,92.000 253.995 C 91.780 254.432,91.600 255.152,91.600 255.595 C 91.600 256.038,91.420 256.400,91.200 256.400 C 90.980 256.400,90.800 256.762,90.800 257.205 C 90.800 257.648,90.629 258.323,90.420 258.705 C 90.211 259.087,89.389 261.200,88.592 263.400 C 86.371 269.536,84.268 272.458,81.000 273.947 C 80.340 274.247,79.487 274.652,79.105 274.847 C 78.080 275.369,72.417 275.264,70.800 274.694 C 65.070 272.672,62.835 269.164,61.568 260.200 C 61.350 258.660,60.990 256.140,60.768 254.600 C 60.546 253.060,60.268 250.630,60.150 249.200 C 60.032 247.770,59.770 246.429,59.568 246.220 C 59.365 246.011,59.200 244.807,59.200 243.544 C 59.200 242.281,59.020 241.136,58.800 241.000 C 58.580 240.864,58.400 239.604,58.400 238.200 C 58.400 236.796,58.220 235.536,58.000 235.400 C 57.780 235.264,57.600 234.029,57.600 232.656 C 57.600 231.283,57.435 229.989,57.234 229.780 C 57.032 229.571,56.769 228.320,56.649 227.000 C 56.529 225.680,56.238 223.250,56.002 221.600 C 55.766 219.950,55.481 217.610,55.369 216.400 C 55.256 215.190,55.003 213.840,54.807 213.400 C 54.611 212.960,54.348 211.520,54.225 210.200 C 54.101 208.880,53.815 206.540,53.589 205.000 C 52.707 198.981,52.407 196.889,52.010 194.000 C 51.783 192.350,51.431 189.920,51.226 188.600 C 50.050 181.001,49.839 179.025,49.821 175.400 C 49.790 169.455,51.855 165.906,56.806 163.397 C 64.181 159.660,75.200 165.395,75.200 172.972 C 75.200 173.731,75.380 174.464,75.600 174.600 C 75.820 174.736,76.000 175.996,76.000 177.400 C 76.000 178.804,76.180 180.064,76.400 180.200 C 76.620 180.336,76.800 181.596,76.800 183.000 C 76.800 184.404,76.980 185.664,77.200 185.800 C 77.420 185.936,77.600 187.171,77.600 188.544 C 77.600 189.917,77.765 191.211,77.966 191.420 C 78.168 191.629,78.431 192.880,78.551 194.200 C 78.671 195.520,78.952 197.860,79.177 199.400 C 79.401 200.940,79.739 203.460,79.926 205.000 C 80.114 206.540,80.449 208.240,80.671 208.777 L 81.075 209.754 81.352 208.577 C 81.695 207.120,83.499 202.247,84.379 200.400 C 84.537 200.070,84.915 198.945,85.220 197.900 C 85.525 196.855,85.915 196.000,86.087 196.000 C 86.259 196.000,86.400 195.638,86.400 195.195 C 86.400 194.417,86.542 194.031,87.538 192.105 C 87.792 191.613,88.000 190.848,88.000 190.405 C 88.000 189.962,88.180 189.600,88.400 189.600 C 88.620 189.600,88.800 189.238,88.800 188.795 C 88.800 188.352,88.959 187.677,89.153 187.295 C 89.348 186.913,89.729 186.060,90.000 185.400 C 90.271 184.740,90.652 183.887,90.847 183.505 C 91.041 183.123,91.200 182.448,91.200 182.005 C 91.200 181.562,91.380 181.200,91.600 181.200 C 91.820 181.200,92.000 180.761,92.000 180.224 C 92.000 179.687,92.180 179.136,92.400 179.000 C 92.620 178.864,92.800 178.403,92.800 177.976 C 92.800 177.549,92.980 177.200,93.200 177.200 C 93.420 177.200,93.600 176.660,93.600 176.000 C 93.600 175.340,93.780 174.800,94.000 174.800 C 94.220 174.800,94.400 174.438,94.400 173.995 C 94.400 173.552,94.559 172.877,94.753 172.495 C 95.301 171.418,95.771 170.200,97.797 164.600 C 101.053 155.606,102.235 153.787,106.000 151.977 C 106.990 151.502,108.113 150.952,108.495 150.756 C 109.407 150.288,115.814 150.296,116.705 150.766 C 117.087 150.968,118.036 151.408,118.814 151.744 C 120.459 152.456,123.600 155.400,123.600 156.231 C 123.600 156.544,123.735 156.801,123.900 156.803 C 124.306 156.807,125.200 158.786,125.200 159.680 C 125.200 160.076,125.380 160.400,125.600 160.400 C 125.820 160.400,126.000 160.850,126.000 161.400 C 126.000 161.950,126.180 162.400,126.400 162.400 C 126.620 162.400,126.800 162.762,126.800 163.205 C 126.800 163.648,126.980 164.368,127.200 164.805 C 127.420 165.242,127.780 165.958,128.000 166.395 C 128.220 166.832,128.400 167.552,128.400 167.995 C 128.400 168.438,128.580 168.800,128.800 168.800 C 129.020 168.800,129.200 169.162,129.200 169.605 C 129.200 170.048,129.359 170.723,129.553 171.105 C 129.748 171.487,130.129 172.340,130.400 173.000 C 130.671 173.660,131.052 174.513,131.247 174.895 C 131.441 175.277,131.600 175.864,131.600 176.200 C 131.600 176.536,131.759 177.123,131.953 177.505 C 132.815 179.200,133.301 180.466,137.819 192.800 C 140.291 199.550,140.714 200.647,141.247 201.695 C 141.441 202.077,141.600 202.741,141.600 203.171 C 141.600 203.601,141.780 204.064,142.000 204.200 C 142.220 204.336,142.400 204.777,142.400 205.181 C 142.400 205.584,142.653 206.012,142.962 206.130 C 143.411 206.302,143.572 205.602,143.758 202.673 C 143.886 200.653,144.173 197.425,144.395 195.500 C 145.090 189.490,145.536 185.490,145.786 183.000 C 146.528 175.638,148.072 160.960,148.395 158.200 C 149.811 146.094,149.933 145.524,151.652 142.964 C 152.790 141.270,154.876 139.411,156.730 138.440 C 157.319 138.132,158.070 137.737,158.400 137.563 C 159.281 137.099,166.310 137.130,166.600 137.600 " stroke="none" fill="#1464c4" fill-rule="evenodd"></path></g></svg>