<svg id="svg" version="1.1" xmlns="http://www.w3.org/2000/svg" xmlns:xlink="http://www.w3.org/1999/xlink" width="400" height="400" viewBox="0, 0, 400,400"><g id="svgg"><path id="path0" d="M225.200 87.193 L 225.200 112.387 282.700 112.493 L 340.200 112.600 342.473 113.665 C 346.199 115.412,347.695 117.115,349.549 121.719 C 351.889 127.528,347.565 134.857,340.440 137.160 C 339.478 137.471,322.423 137.600,282.140 137.600 L 225.200 137.600 225.200 149.993 L 225.200 162.387 282.700 162.493 L 340.200 162.600 342.473 163.665 C 346.199 165.412,347.695 167.115,349.549 171.719 C 351.889 177.528,347.565 184.857,340.440 187.160 C 339.478 187.471,322.423 187.600,282.140 187.600 L 225.200 187.600 225.200 199.993 L 225.200 212.387 282.700 212.493 L 340.200 212.600 342.473 213.665 C 346.199 215.412,347.695 217.115,349.549 221.719 C 351.889 227.528,347.565 234.857,340.440 237.160 C 339.478 237.471,322.423 237.600,282.140 237.600 L 225.200 237.600 225.200 249.993 L 225.200 262.387 282.700 262.493 L 340.200 262.600 342.473 263.665 C 346.199 265.412,347.695 267.115,349.549 271.719 C 351.889 277.528,347.565 284.857,340.440 287.160 C 339.478 287.471,322.423 287.600,282.140 287.600 L 225.200 287.600 225.200 312.800 L 225.200 338.000 299.988 338.000 L 374.776 338.000 377.009 336.979 C 379.206 335.974,382.400 333.085,382.400 332.102 C 382.400 331.826,382.580 331.600,382.800 331.600 C 383.020 331.600,383.200 331.251,383.200 330.824 C 383.200 330.397,383.380 329.936,383.600 329.800 C 383.865 329.636,384.000 298.463,384.000 237.576 L 384.000 145.600 388.200 145.600 C 390.733 145.600,392.400 145.441,392.400 145.200 C 392.400 144.980,392.760 144.800,393.200 144.800 C 393.640 144.800,394.000 144.620,394.000 144.400 C 394.000 144.180,394.275 144.000,394.611 144.000 C 395.269 144.000,398.800 140.666,398.800 140.044 C 398.800 139.836,399.025 139.592,399.300 139.500 C 400.114 139.229,400.018 95.741,399.200 94.166 C 398.391 92.606,395.369 89.600,394.611 89.600 C 394.275 89.600,394.000 89.420,394.000 89.200 C 394.000 88.980,393.651 88.800,393.224 88.800 C 392.797 88.800,392.336 88.620,392.200 88.400 C 392.062 88.177,390.196 88.000,387.976 88.000 L 384.000 88.000 384.000 79.224 C 384.000 73.804,383.847 70.353,383.600 70.200 C 383.380 70.064,383.200 69.603,383.200 69.176 C 383.200 68.749,383.020 68.400,382.800 68.400 C 382.580 68.400,382.400 68.159,382.400 67.864 C 382.400 67.276,379.346 64.000,378.798 64.000 C 378.610 64.000,378.219 63.775,377.929 63.500 C 376.333 61.990,376.837 62.000,299.872 62.000 L 225.200 62.000 225.200 87.193 M56.899 202.700 L 57.000 271.800 68.200 271.800 L 79.400 271.800 79.400 223.967 L 79.400 176.133 84.200 182.189 C 86.840 185.519,91.430 191.357,94.400 195.162 C 97.370 198.966,101.522 204.266,103.626 206.939 C 109.503 214.406,116.489 223.334,117.600 224.801 C 118.150 225.527,120.821 228.928,123.536 232.360 C 126.251 235.792,129.221 239.563,130.136 240.740 C 131.810 242.893,136.823 249.281,137.719 250.402 C 137.984 250.733,140.661 254.153,143.668 258.002 C 155.260 272.838,153.642 271.800,165.188 271.800 L 173.400 271.800 173.400 202.800 L 173.400 133.800 162.086 133.694 L 150.772 133.587 150.886 181.343 C 150.963 213.732,150.869 229.048,150.591 228.941 C 150.367 228.855,149.978 228.457,149.728 228.056 C 149.477 227.655,147.681 225.294,145.736 222.808 C 143.791 220.323,140.710 216.379,138.890 214.045 C 137.069 211.710,135.153 209.260,134.633 208.600 C 133.518 207.187,125.768 197.295,117.397 186.600 C 111.744 179.379,110.006 177.160,100.600 165.160 C 98.400 162.353,93.900 156.605,90.600 152.385 C 87.300 148.165,83.078 142.797,81.217 140.456 C 75.409 133.150,76.449 133.603,65.499 133.601 L 56.798 133.600 56.899 202.700 M390.400 192.553 C 390.400 211.060,390.541 221.600,390.788 221.600 C 392.757 221.600,398.800 217.214,398.800 215.785 C 398.800 215.500,399.025 215.192,399.300 215.100 C 399.692 214.969,399.800 210.111,399.800 192.600 C 399.800 175.089,399.692 170.231,399.300 170.100 C 399.025 170.008,398.800 169.693,398.800 169.398 C 398.800 168.683,395.289 165.200,394.568 165.200 C 394.256 165.200,394.000 165.041,394.000 164.847 C 394.000 164.652,393.595 164.397,393.100 164.279 C 392.605 164.161,391.795 163.939,391.300 163.786 L 390.400 163.507 390.400 192.553 M390.400 265.200 L 390.400 294.000 391.400 294.000 C 391.950 294.000,392.400 293.820,392.400 293.600 C 392.400 293.380,392.760 293.200,393.200 293.200 C 393.640 293.200,394.000 293.020,394.000 292.800 C 394.000 292.580,394.294 292.400,394.653 292.400 C 395.368 292.400,398.800 289.161,398.800 288.486 C 398.800 288.255,399.025 287.992,399.300 287.900 C 399.692 287.769,399.800 282.911,399.800 265.400 C 399.800 247.889,399.692 243.031,399.300 242.900 C 399.025 242.808,398.800 242.460,398.800 242.127 C 398.800 241.395,395.293 238.000,394.536 238.000 C 394.241 238.000,394.000 237.820,394.000 237.600 C 394.000 237.380,393.651 237.200,393.224 237.200 C 392.797 237.200,392.336 237.020,392.200 236.800 C 392.064 236.580,391.603 236.400,391.176 236.400 C 390.415 236.400,390.400 236.959,390.400 265.200 " stroke="none" fill="#efeff5" fill-rule="evenodd"></path><path id="path1" d="M207.200 12.400 C 206.870 12.613,205.745 12.791,204.700 12.794 C 203.655 12.797,202.800 12.980,202.800 13.200 C 202.800 13.420,201.900 13.600,200.800 13.600 C 199.700 13.600,198.800 13.780,198.800 14.000 C 198.800 14.220,197.810 14.400,196.600 14.400 C 195.390 14.400,194.400 14.580,194.400 14.800 C 194.400 15.020,193.500 15.200,192.400 15.200 C 191.300 15.200,190.400 15.380,190.400 15.600 C 190.400 15.820,189.511 16.000,188.424 16.000 C 187.337 16.000,186.336 16.180,186.200 16.400 C 186.064 16.620,185.063 16.800,183.976 16.800 C 182.889 16.800,182.000 16.980,182.000 17.200 C 182.000 17.420,181.111 17.600,180.024 17.600 C 178.937 17.600,177.936 17.780,177.800 18.000 C 177.664 18.220,176.764 18.400,175.800 18.400 C 174.836 18.400,173.936 18.580,173.800 18.800 C 173.664 19.020,172.573 19.200,171.376 19.200 C 170.179 19.200,169.200 19.380,169.200 19.600 C 169.200 19.820,168.300 20.000,167.200 20.000 C 166.100 20.000,165.200 20.180,165.200 20.400 C 165.200 20.620,164.289 20.800,163.176 20.800 C 161.929 20.800,161.248 20.953,161.400 21.200 C 161.554 21.450,160.737 21.600,159.224 21.600 C 157.875 21.600,156.800 21.777,156.800 22.000 C 156.800 22.220,155.900 22.400,154.800 22.400 C 153.700 22.400,152.800 22.580,152.800 22.800 C 152.800 23.020,151.810 23.200,150.600 23.200 C 149.390 23.200,148.400 23.380,148.400 23.600 C 148.400 23.820,147.500 24.000,146.400 24.000 C 145.300 24.000,144.400 24.180,144.400 24.400 C 144.400 24.620,143.500 24.800,142.400 24.800 C 141.300 24.800,140.400 24.963,140.400 25.163 C 140.400 25.504,139.699 25.619,133.900 26.231 C 132.635 26.365,131.600 26.614,131.600 26.785 C 131.600 26.957,129.935 27.226,127.900 27.385 C 125.865 27.543,124.020 27.817,123.800 27.993 C 123.580 28.170,122.545 28.423,121.500 28.557 C 120.455 28.691,118.745 28.907,117.700 29.039 C 116.655 29.170,115.629 29.440,115.420 29.639 C 115.211 29.837,114.277 30.000,113.344 30.000 C 112.411 30.000,111.536 30.180,111.400 30.400 C 111.264 30.620,110.274 30.800,109.200 30.800 C 108.126 30.800,107.136 30.980,107.000 31.200 C 106.864 31.420,105.863 31.600,104.776 31.600 C 103.689 31.600,102.800 31.780,102.800 32.000 C 102.800 32.220,101.900 32.400,100.800 32.400 C 99.700 32.400,98.800 32.580,98.800 32.800 C 98.800 33.020,97.900 33.200,96.800 33.200 C 95.700 33.200,94.800 33.380,94.800 33.600 C 94.800 33.820,93.810 34.000,92.600 34.000 C 91.390 34.000,90.400 34.180,90.400 34.400 C 90.400 34.620,89.511 34.800,88.424 34.800 C 87.337 34.800,86.336 34.980,86.200 35.200 C 86.064 35.420,85.074 35.600,84.000 35.600 C 82.926 35.600,81.936 35.780,81.800 36.000 C 81.664 36.220,80.764 36.400,79.800 36.400 C 78.836 36.400,77.936 36.580,77.800 36.800 C 77.664 37.020,76.663 37.200,75.576 37.200 C 74.489 37.200,73.600 37.380,73.600 37.600 C 73.600 37.820,72.610 38.000,71.400 38.000 C 70.190 38.000,69.200 38.180,69.200 38.400 C 69.200 38.620,68.401 38.800,67.424 38.800 C 66.447 38.800,65.536 38.980,65.400 39.200 C 65.264 39.420,64.432 39.600,63.550 39.600 C 62.669 39.600,61.629 39.770,61.241 39.978 C 60.852 40.186,59.704 40.399,58.689 40.452 C 57.674 40.504,56.935 40.694,57.045 40.874 C 57.156 41.053,56.247 41.200,55.024 41.200 C 53.801 41.200,52.800 41.380,52.800 41.600 C 52.800 41.820,51.990 42.000,51.000 42.000 C 50.010 42.000,49.200 42.180,49.200 42.400 C 49.200 42.622,48.133 42.800,46.800 42.800 C 45.480 42.800,44.400 42.961,44.400 43.157 C 44.400 43.353,42.600 43.643,40.400 43.800 C 38.200 43.957,36.400 44.230,36.400 44.406 C 36.400 44.582,35.455 44.825,34.300 44.945 C 30.406 45.351,28.604 45.644,27.800 46.000 C 27.053 46.331,26.244 46.468,21.600 47.051 C 20.610 47.176,19.629 47.440,19.420 47.639 C 19.211 47.837,18.277 48.000,17.344 48.000 C 16.411 48.000,15.536 48.180,15.400 48.400 C 15.264 48.620,14.263 48.800,13.176 48.800 C 12.089 48.800,11.200 48.980,11.200 49.200 C 11.200 49.420,10.491 49.600,9.624 49.600 C 8.757 49.600,7.936 49.780,7.800 50.000 C 7.664 50.220,7.243 50.400,6.865 50.400 C 6.486 50.400,5.917 50.760,5.600 51.200 C 5.283 51.640,4.838 52.000,4.612 52.000 C 3.906 52.001,2.000 53.860,2.000 54.547 C 2.000 54.906,1.820 55.200,1.600 55.200 C 1.380 55.200,1.200 55.455,1.200 55.767 C 1.200 56.078,0.975 56.408,0.700 56.500 C -0.219 56.806,-0.227 341.354,0.692 343.295 C 1.081 344.118,1.535 344.793,1.700 344.795 C 1.865 344.798,2.000 345.079,2.000 345.419 C 2.000 346.078,3.920 347.966,4.612 347.987 C 4.838 347.994,5.283 348.360,5.600 348.800 C 5.917 349.240,6.486 349.600,6.865 349.600 C 7.243 349.600,7.664 349.780,7.800 350.000 C 7.936 350.220,8.847 350.400,9.824 350.400 C 10.801 350.400,11.600 350.580,11.600 350.800 C 11.600 351.020,12.410 351.200,13.400 351.200 C 14.390 351.200,15.200 351.380,15.200 351.600 C 15.200 351.820,16.064 352.000,17.120 352.000 C 18.176 352.000,19.211 352.163,19.420 352.361 C 19.629 352.560,20.655 352.830,21.700 352.961 C 22.745 353.093,24.455 353.307,25.500 353.439 C 26.545 353.570,27.571 353.840,27.780 354.039 C 27.989 354.237,28.923 354.400,29.856 354.400 C 30.789 354.400,31.664 354.580,31.800 354.800 C 31.936 355.020,32.926 355.200,34.000 355.200 C 35.074 355.200,36.064 355.380,36.200 355.600 C 36.336 355.820,37.326 356.000,38.400 356.000 C 39.474 356.000,40.464 356.180,40.600 356.400 C 40.736 356.620,41.636 356.800,42.600 356.800 C 43.564 356.800,44.464 356.980,44.600 357.200 C 44.736 357.420,45.726 357.600,46.800 357.600 C 47.874 357.600,48.854 357.763,48.977 357.963 C 49.100 358.162,50.911 358.454,53.001 358.610 C 55.090 358.767,56.800 359.054,56.800 359.248 C 56.800 359.441,57.700 359.600,58.800 359.600 C 59.900 359.600,60.800 359.780,60.800 360.000 C 60.800 360.220,61.790 360.400,63.000 360.400 C 64.210 360.400,65.200 360.580,65.200 360.800 C 65.200 361.020,66.089 361.200,67.176 361.200 C 68.263 361.200,69.264 361.380,69.400 361.600 C 69.536 361.820,70.526 362.000,71.600 362.000 C 72.674 362.000,73.664 362.180,73.800 362.400 C 73.936 362.620,74.836 362.800,75.800 362.800 C 76.764 362.800,77.664 362.980,77.800 363.200 C 77.936 363.420,78.836 363.600,79.800 363.600 C 80.764 363.600,81.664 363.780,81.800 364.000 C 81.936 364.220,82.836 364.400,83.800 364.400 C 84.764 364.400,85.664 364.580,85.800 364.800 C 85.936 365.020,87.027 365.200,88.224 365.200 C 89.421 365.200,90.400 365.380,90.400 365.600 C 90.400 365.820,91.285 366.000,92.367 366.000 C 93.448 366.000,94.393 366.170,94.467 366.378 C 94.540 366.585,95.635 366.796,96.900 366.846 C 98.165 366.896,99.200 367.086,99.200 367.268 C 99.200 367.451,100.010 367.600,101.000 367.600 C 101.990 367.600,102.800 367.780,102.800 368.000 C 102.800 368.220,103.700 368.400,104.800 368.400 C 105.900 368.400,106.800 368.580,106.800 368.800 C 106.800 369.020,107.790 369.200,109.000 369.200 C 110.210 369.200,111.200 369.380,111.200 369.600 C 111.200 369.820,112.100 370.000,113.200 370.000 C 114.300 370.000,115.200 370.180,115.200 370.400 C 115.200 370.620,116.064 370.800,117.120 370.800 C 118.176 370.800,119.211 370.963,119.420 371.161 C 119.629 371.360,120.610 371.624,121.600 371.749 C 126.244 372.332,127.053 372.469,127.800 372.800 C 128.604 373.156,130.406 373.449,134.300 373.855 C 135.455 373.975,136.400 374.218,136.400 374.394 C 136.400 374.570,138.200 374.843,140.400 375.000 C 142.600 375.157,144.400 375.447,144.400 375.643 C 144.400 375.839,145.480 376.000,146.800 376.000 C 148.133 376.000,149.200 376.178,149.200 376.400 C 149.200 376.620,150.010 376.800,151.000 376.800 C 151.990 376.800,152.800 376.980,152.800 377.200 C 152.800 377.420,153.801 377.600,155.024 377.600 C 156.247 377.600,157.156 377.747,157.045 377.926 C 156.935 378.106,157.674 378.296,158.689 378.348 C 159.704 378.401,160.852 378.614,161.241 378.822 C 161.629 379.030,162.679 379.200,163.574 379.200 C 164.468 379.200,165.200 379.380,165.200 379.600 C 165.200 379.820,166.100 380.000,167.200 380.000 C 168.300 380.000,169.200 380.180,169.200 380.400 C 169.200 380.620,170.190 380.800,171.400 380.800 C 172.610 380.800,173.600 380.980,173.600 381.200 C 173.600 381.420,174.489 381.600,175.576 381.600 C 176.663 381.600,177.664 381.780,177.800 382.000 C 177.936 382.220,178.836 382.400,179.800 382.400 C 180.764 382.400,181.664 382.580,181.800 382.800 C 181.936 383.020,182.926 383.200,184.000 383.200 C 185.074 383.200,186.064 383.380,186.200 383.600 C 186.336 383.820,187.337 384.000,188.424 384.000 C 189.511 384.000,190.400 384.180,190.400 384.400 C 190.400 384.620,191.390 384.800,192.600 384.800 C 193.810 384.800,194.800 384.980,194.800 385.200 C 194.800 385.420,195.700 385.600,196.800 385.600 C 197.900 385.600,198.800 385.780,198.800 386.000 C 198.800 386.220,199.700 386.400,200.800 386.400 C 201.900 386.400,202.800 386.580,202.800 386.800 C 202.800 387.020,203.689 387.200,204.776 387.200 C 205.863 387.200,206.864 387.380,207.000 387.600 C 207.143 387.832,209.345 388.000,212.247 388.000 C 215.479 388.000,217.160 387.859,217.000 387.600 C 216.864 387.380,217.123 387.200,217.576 387.200 C 218.029 387.200,218.400 387.020,218.400 386.800 C 218.400 386.580,218.760 386.400,219.200 386.400 C 219.640 386.400,220.000 386.220,220.000 386.000 C 220.000 385.780,220.295 385.600,220.656 385.600 C 221.345 385.600,221.651 385.280,223.655 382.462 L 224.891 380.723 224.869 200.662 C 224.844 -8.706,224.993 19.258,223.895 17.869 C 221.492 14.830,221.102 14.400,220.748 14.400 C 220.538 14.400,219.980 14.040,219.508 13.600 C 219.036 13.160,218.233 12.800,217.725 12.800 C 217.216 12.800,216.800 12.620,216.800 12.400 C 216.800 11.878,208.008 11.878,207.200 12.400 M75.600 133.579 C 76.728 134.201,80.800 138.409,80.800 138.953 C 80.800 139.147,81.124 139.597,81.519 139.953 C 81.914 140.309,82.676 141.230,83.211 142.000 C 83.747 142.770,84.504 143.760,84.894 144.200 C 85.284 144.640,86.508 146.170,87.614 147.600 C 88.720 149.030,89.847 150.470,90.118 150.800 C 90.389 151.130,91.050 152.030,91.587 152.800 C 92.123 153.570,92.849 154.470,93.200 154.800 C 93.551 155.130,94.277 156.030,94.815 156.800 C 95.352 157.570,96.288 158.722,96.896 159.359 C 97.503 159.997,98.000 160.669,98.000 160.852 C 98.000 161.036,98.448 161.684,98.996 162.293 C 100.625 164.103,106.400 171.548,106.400 171.838 C 106.400 171.986,106.724 172.397,107.119 172.753 C 107.514 173.109,108.271 174.030,108.800 174.800 C 109.329 175.570,110.049 176.470,110.400 176.800 C 110.751 177.130,111.471 178.030,112.000 178.800 C 112.529 179.570,113.242 180.470,113.584 180.800 C 113.927 181.130,115.015 182.480,116.002 183.800 C 116.990 185.120,117.897 186.290,118.018 186.400 C 118.138 186.510,119.123 187.770,120.206 189.200 C 121.289 190.630,122.406 192.038,122.688 192.329 C 122.969 192.619,123.200 192.981,123.200 193.133 C 123.200 193.284,123.605 193.856,124.100 194.404 C 124.595 194.952,125.492 196.059,126.094 196.865 C 126.696 197.671,127.416 198.571,127.694 198.865 C 127.972 199.159,129.010 200.480,130.000 201.800 C 130.990 203.120,132.028 204.441,132.306 204.735 C 132.584 205.029,133.304 205.925,133.906 206.727 C 134.508 207.528,135.305 208.548,135.677 208.992 C 136.050 209.436,136.860 210.464,137.477 211.275 C 141.355 216.372,143.452 219.067,143.899 219.535 C 144.181 219.829,144.904 220.729,145.506 221.535 C 146.108 222.341,147.005 223.448,147.500 223.996 C 147.995 224.544,148.400 225.101,148.400 225.235 C 148.400 225.577,149.841 227.200,150.145 227.200 C 150.284 227.200,150.442 206.005,150.498 180.100 L 150.600 133.000 162.091 132.894 L 173.582 132.788 173.800 133.694 C 173.921 134.192,173.970 165.560,173.909 203.400 L 173.800 272.200 165.600 272.312 C 154.467 272.464,153.931 272.245,148.765 265.429 C 147.252 263.433,145.693 261.440,145.300 261.000 C 144.907 260.560,144.147 259.570,143.611 258.800 C 143.076 258.030,142.358 257.130,142.016 256.800 C 141.673 256.470,140.585 255.120,139.597 253.800 C 138.608 252.480,137.572 251.159,137.294 250.865 C 137.016 250.571,136.297 249.671,135.696 248.865 C 135.096 248.059,134.505 247.310,134.384 247.200 C 134.262 247.090,133.276 245.830,132.191 244.400 C 129.663 241.065,129.826 241.276,128.303 239.368 C 127.586 238.470,126.550 237.141,126.000 236.415 C 125.450 235.688,124.730 234.773,124.400 234.380 C 122.963 232.673,122.533 232.121,121.613 230.800 C 121.077 230.030,120.351 229.130,120.000 228.800 C 119.649 228.470,118.923 227.570,118.387 226.800 C 117.850 226.030,117.111 225.040,116.743 224.600 C 116.376 224.160,115.153 222.630,114.025 221.200 C 112.897 219.770,111.753 218.330,111.482 218.000 C 111.211 217.670,110.547 216.770,110.007 216.000 C 109.467 215.230,108.526 214.060,107.915 213.400 C 107.304 212.740,106.803 212.057,106.802 211.882 C 106.801 211.707,106.346 211.110,105.792 210.556 C 105.238 210.002,104.473 209.068,104.092 208.481 C 103.711 207.893,102.993 206.960,102.495 206.407 C 101.997 205.853,100.154 203.510,98.398 201.200 C 96.643 198.890,94.887 196.640,94.496 196.200 C 94.105 195.760,93.347 194.770,92.811 194.000 C 92.276 193.230,91.551 192.330,91.200 192.000 C 90.849 191.670,90.123 190.770,89.587 190.000 C 88.615 188.606,88.071 187.913,86.655 186.266 C 86.245 185.790,85.435 184.770,84.855 184.000 C 84.275 183.230,83.574 182.362,83.299 182.070 C 83.023 181.779,82.213 180.699,81.499 179.670 L 80.200 177.800 80.000 225.000 L 79.800 272.200 68.800 272.312 C 62.750 272.374,57.395 272.326,56.900 272.205 L 56.000 271.985 56.000 202.872 C 56.000 148.124,56.104 133.653,56.500 133.245 C 57.227 132.498,74.176 132.793,75.600 133.579 " stroke="none" fill="#844ca4" fill-rule="evenodd"></path><path id="path2" d="M224.994 200.200 C 224.994 276.100,225.042 326.815,225.100 312.900 L 225.206 287.600 282.143 287.600 C 322.423 287.600,339.478 287.471,340.440 287.160 C 347.565 284.857,351.889 277.528,349.549 271.719 C 347.695 267.115,346.199 265.412,342.473 263.665 L 340.200 262.600 282.700 262.493 L 225.200 262.387 225.200 249.993 L 225.200 237.600 282.140 237.600 C 322.423 237.600,339.478 237.471,340.440 237.160 C 347.565 234.857,351.889 227.528,349.549 221.719 C 347.695 217.115,346.199 215.412,342.473 213.665 L 340.200 212.600 282.700 212.493 L 225.200 212.387 225.200 199.993 L 225.200 187.600 282.140 187.600 C 322.423 187.600,339.478 187.471,340.440 187.160 C 347.565 184.857,351.889 177.528,349.549 171.719 C 347.695 167.115,346.199 165.412,342.473 163.665 L 340.200 162.600 282.700 162.493 L 225.200 162.387 225.200 149.993 L 225.200 137.600 282.140 137.600 C 322.423 137.600,339.478 137.471,340.440 137.160 C 347.565 134.857,351.889 127.528,349.549 121.719 C 347.695 117.115,346.199 115.412,342.473 113.665 L 340.200 112.600 282.703 112.493 L 225.206 112.387 225.100 87.293 C 225.042 73.492,224.994 124.300,224.994 200.200 M56.500 133.245 C 56.104 133.653,56.000 148.124,56.000 202.872 L 56.000 271.985 56.900 272.205 C 57.395 272.326,62.750 272.374,68.800 272.312 L 79.800 272.200 80.000 225.000 L 80.200 177.800 81.499 179.670 C 82.213 180.699,83.023 181.779,83.299 182.070 C 83.574 182.362,84.275 183.230,84.855 184.000 C 85.435 184.770,86.245 185.790,86.655 186.266 C 88.071 187.913,88.615 188.606,89.587 190.000 C 90.123 190.770,90.849 191.670,91.200 192.000 C 91.551 192.330,92.276 193.230,92.811 194.000 C 93.347 194.770,94.105 195.760,94.496 196.200 C 94.887 196.640,96.643 198.890,98.398 201.200 C 100.154 203.510,101.997 205.853,102.495 206.407 C 102.993 206.960,103.711 207.893,104.092 208.481 C 104.473 209.068,105.238 210.002,105.792 210.556 C 106.346 211.110,106.801 211.707,106.802 211.882 C 106.803 212.057,107.304 212.740,107.915 213.400 C 108.526 214.060,109.467 215.230,110.007 216.000 C 110.547 216.770,111.211 217.670,111.482 218.000 C 111.753 218.330,112.897 219.770,114.025 221.200 C 115.153 222.630,116.376 224.160,116.743 224.600 C 117.111 225.040,117.850 226.030,118.387 226.800 C 118.923 227.570,119.649 228.470,120.000 228.800 C 120.351 229.130,121.077 230.030,121.613 230.800 C 122.533 232.121,122.963 232.673,124.400 234.380 C 124.730 234.773,125.450 235.688,126.000 236.415 C 126.550 237.141,127.586 238.470,128.303 239.368 C 129.826 241.276,129.663 241.065,132.191 244.400 C 133.276 245.830,134.262 247.090,134.384 247.200 C 134.505 247.310,135.096 248.059,135.696 248.865 C 136.297 249.671,137.016 250.571,137.294 250.865 C 137.572 251.159,138.608 252.480,139.597 253.800 C 140.585 255.120,141.673 256.470,142.016 256.800 C 142.358 257.130,143.076 258.030,143.611 258.800 C 144.147 259.570,144.907 260.560,145.300 261.000 C 145.693 261.440,147.252 263.433,148.765 265.429 C 153.931 272.245,154.467 272.464,165.600 272.312 L 173.800 272.200 173.909 203.400 C 173.970 165.560,173.921 134.192,173.800 133.694 L 173.582 132.788 162.091 132.894 L 150.600 133.000 150.498 180.100 C 150.442 206.005,150.284 227.200,150.145 227.200 C 149.841 227.200,148.400 225.577,148.400 225.235 C 148.400 225.101,147.995 224.544,147.500 223.996 C 147.005 223.448,146.108 222.341,145.506 221.535 C 144.904 220.729,144.181 219.829,143.899 219.535 C 143.452 219.067,141.355 216.372,137.477 211.275 C 136.860 210.464,136.050 209.436,135.677 208.992 C 135.305 208.548,134.508 207.528,133.906 206.727 C 133.304 205.925,132.584 205.029,132.306 204.735 C 132.028 204.441,130.990 203.120,130.000 201.800 C 129.010 200.480,127.972 199.159,127.694 198.865 C 127.416 198.571,126.696 197.671,126.094 196.865 C 125.492 196.059,124.595 194.952,124.100 194.404 C 123.605 193.856,123.200 193.284,123.200 193.133 C 123.200 192.981,122.969 192.619,122.688 192.329 C 122.406 192.038,121.289 190.630,120.206 189.200 C 119.123 187.770,118.138 186.510,118.018 186.400 C 117.897 186.290,116.990 185.120,116.002 183.800 C 115.015 182.480,113.927 181.130,113.584 180.800 C 113.242 180.470,112.529 179.570,112.000 178.800 C 111.471 178.030,110.751 177.130,110.400 176.800 C 110.049 176.470,109.329 175.570,108.800 174.800 C 108.271 174.030,107.514 173.109,107.119 172.753 C 106.724 172.397,106.400 171.986,106.400 171.838 C 106.400 171.548,100.625 164.103,98.996 162.293 C 98.448 161.684,98.000 161.036,98.000 160.852 C 98.000 160.669,97.503 159.997,96.896 159.359 C 96.288 158.722,95.352 157.570,94.815 156.800 C 94.277 156.030,93.551 155.130,93.200 154.800 C 92.849 154.470,92.123 153.570,91.587 152.800 C 91.050 152.030,90.389 151.130,90.118 150.800 C 89.847 150.470,88.720 149.030,87.614 147.600 C 86.508 146.170,85.284 144.640,84.894 144.200 C 84.504 143.760,83.747 142.770,83.211 142.000 C 82.676 141.230,81.914 140.309,81.519 139.953 C 81.124 139.597,80.800 139.147,80.800 138.953 C 80.800 138.409,76.728 134.201,75.600 133.579 C 74.176 132.793,57.227 132.498,56.500 133.245 M75.558 134.431 C 77.477 135.601,77.443 135.561,90.600 152.385 C 93.900 156.605,98.400 162.353,100.600 165.160 C 110.006 177.160,111.744 179.379,117.397 186.600 C 125.768 197.295,133.518 207.187,134.633 208.600 C 135.153 209.260,137.069 211.710,138.890 214.045 C 140.710 216.379,143.791 220.323,145.736 222.808 C 147.681 225.294,149.477 227.655,149.728 228.056 C 149.978 228.457,150.367 228.855,150.591 228.941 C 150.869 229.048,150.963 213.732,150.886 181.343 L 150.772 133.587 162.086 133.694 L 173.400 133.800 173.400 202.800 L 173.400 271.800 165.188 271.800 C 153.642 271.800,155.260 272.838,143.668 258.002 C 140.661 254.153,137.984 250.733,137.719 250.402 C 136.823 249.281,131.810 242.893,130.136 240.740 C 129.221 239.563,126.251 235.792,123.536 232.360 C 120.821 228.928,118.150 225.527,117.600 224.801 C 116.489 223.334,109.503 214.406,103.626 206.939 C 101.522 204.266,97.370 198.966,94.400 195.162 C 91.430 191.357,86.840 185.519,84.200 182.189 L 79.400 176.133 79.400 223.967 L 79.400 271.800 68.200 271.800 L 57.000 271.800 56.899 202.700 L 56.798 133.600 65.499 133.601 C 73.592 133.603,74.295 133.661,75.558 134.431 " stroke="none" fill="#945cbc" fill-rule="evenodd"></path></g></svg>