<svg id="svg" version="1.1" xmlns="http://www.w3.org/2000/svg" xmlns:xlink="http://www.w3.org/1999/xlink" width="400" height="400" viewBox="0, 0, 400,400"><g id="svgg"><path id="path0" d="M88.185 129.300 C 88.080 129.575,88.041 163.280,88.097 204.200 L 88.200 278.600 98.297 278.707 L 108.395 278.814 108.497 248.907 L 108.600 219.000 126.600 218.741 C 145.185 218.473,146.656 218.363,153.600 216.732 C 174.463 211.830,185.167 197.285,185.192 173.800 C 185.222 146.595,170.756 131.592,142.200 129.209 C 134.801 128.591,88.424 128.670,88.185 129.300 M137.684 145.613 C 154.417 147.292,162.772 155.776,163.472 171.800 C 164.067 185.407,159.692 194.115,149.800 199.018 C 143.941 201.922,139.206 202.481,121.800 202.321 L 108.600 202.200 108.496 174.200 C 108.440 158.800,108.479 145.975,108.584 145.700 C 108.827 145.063,131.528 144.995,137.684 145.613 " stroke="none" fill="#fafbfa" fill-rule="evenodd"></path><path id="path1" d="M226.567 13.146 C 226.766 13.469,228.800 13.293,228.800 12.953 C 228.800 12.869,228.249 12.800,227.576 12.800 C 226.903 12.800,226.449 12.956,226.567 13.146 M201.200 17.945 C 201.200 18.134,201.650 18.203,202.200 18.098 C 202.750 17.993,203.200 17.838,203.200 17.753 C 203.200 17.669,202.750 17.600,202.200 17.600 C 201.650 17.600,201.200 17.755,201.200 17.945 M149.600 27.495 C 148.610 27.581,147.664 27.784,147.499 27.946 C 147.333 28.109,148.182 28.134,149.385 28.002 C 150.588 27.869,151.699 27.635,151.853 27.480 C 152.007 27.326,151.968 27.231,151.767 27.270 C 151.565 27.308,150.590 27.410,149.600 27.495 M248.400 100.000 L 248.400 112.800 295.576 112.800 C 328.052 112.800,342.834 112.931,343.012 113.219 C 343.189 113.506,343.427 113.509,343.765 113.229 C 344.106 112.946,344.405 112.965,344.730 113.290 C 345.083 113.643,345.524 113.649,346.500 113.314 C 347.215 113.068,348.554 112.877,349.477 112.888 L 351.153 112.909 351.145 116.750 C 351.140 119.246,350.973 120.694,350.669 120.884 C 350.315 121.104,350.312 121.357,350.657 121.914 C 350.946 122.381,350.981 122.890,350.752 123.299 C 350.527 123.702,350.543 124.041,350.795 124.197 C 351.066 124.365,351.200 151.341,351.200 205.824 L 351.200 287.200 299.800 287.200 L 248.400 287.200 248.400 300.000 L 248.400 312.800 309.112 312.800 C 369.365 312.800,369.828 312.794,370.400 312.000 C 370.717 311.560,371.115 311.200,371.284 311.200 C 371.635 311.200,372.938 310.173,374.067 309.005 C 374.964 308.078,376.000 306.113,376.000 305.339 C 376.000 305.042,376.180 304.800,376.400 304.800 C 376.666 304.800,376.800 269.675,376.800 200.224 C 376.800 130.937,376.665 95.564,376.400 95.400 C 376.180 95.264,376.000 94.803,376.000 94.376 C 376.000 93.949,375.820 93.600,375.600 93.600 C 375.380 93.600,375.200 93.283,375.200 92.896 C 375.200 91.920,372.149 88.800,371.195 88.800 C 370.978 88.800,370.800 88.620,370.800 88.400 C 370.800 88.180,370.361 88.000,369.824 88.000 C 369.287 88.000,368.736 87.820,368.600 87.600 C 368.437 87.336,347.929 87.200,308.376 87.200 L 248.400 87.200 248.400 100.000 M260.200 122.400 C 260.060 122.840,259.778 123.200,259.573 123.200 C 259.352 123.200,259.200 127.587,259.200 134.000 C 259.200 140.933,259.343 144.800,259.600 144.800 C 259.820 144.800,260.000 145.160,260.000 145.600 C 260.000 146.389,260.267 146.400,278.600 146.400 L 297.200 146.400 297.200 159.000 L 297.200 171.600 285.371 171.600 C 275.653 171.600,273.441 171.702,272.971 172.171 C 272.316 172.827,272.206 174.000,272.800 174.000 C 273.020 174.000,273.200 174.194,273.200 174.431 C 273.200 174.669,273.920 175.554,274.800 176.400 C 275.680 177.246,276.400 178.144,276.400 178.397 C 276.400 178.650,276.625 179.108,276.900 179.415 C 278.094 180.747,278.400 181.192,278.400 181.602 C 278.400 181.842,279.660 183.281,281.200 184.800 C 282.740 186.319,284.000 187.764,284.000 188.012 C 284.000 188.478,286.461 190.955,287.952 191.988 C 288.418 192.312,288.800 192.817,288.800 193.110 C 288.800 193.404,289.880 194.704,291.200 196.000 C 292.520 197.296,293.600 198.632,293.600 198.969 C 293.600 199.307,294.590 200.573,295.800 201.783 C 297.010 202.993,298.000 204.181,298.000 204.423 C 298.000 204.665,298.720 205.554,299.600 206.400 C 300.480 207.246,301.200 208.044,301.200 208.174 C 301.200 208.715,308.841 216.000,309.408 216.000 C 310.112 216.000,312.800 213.454,312.800 212.787 C 312.800 212.327,316.085 209.023,317.549 208.012 C 318.017 207.688,318.400 207.181,318.400 206.886 C 318.400 206.590,319.300 205.471,320.400 204.400 C 321.500 203.329,322.400 202.254,322.400 202.013 C 322.400 201.771,322.985 200.950,323.700 200.189 C 324.415 199.427,325.585 198.178,326.300 197.414 C 327.015 196.649,327.600 195.826,327.600 195.585 C 327.600 195.345,328.500 194.271,329.600 193.200 C 330.700 192.129,331.600 191.142,331.600 191.007 C 331.600 190.872,332.860 189.519,334.400 188.000 C 335.940 186.481,337.200 185.046,337.200 184.811 C 337.200 184.575,338.145 183.397,339.300 182.192 C 340.455 180.987,342.345 179.015,343.500 177.809 C 344.655 176.603,345.600 175.472,345.600 175.296 C 345.600 175.120,345.960 174.717,346.400 174.400 C 347.343 173.721,347.420 172.963,346.629 172.171 C 346.158 171.701,343.893 171.600,333.829 171.600 L 321.600 171.600 321.600 149.400 C 321.600 134.867,321.462 127.200,321.200 127.200 C 320.980 127.200,320.800 126.925,320.800 126.589 C 320.800 125.558,317.340 122.400,316.211 122.400 C 315.655 122.400,315.200 122.220,315.200 122.000 C 315.200 121.094,260.488 121.492,260.200 122.400 M248.800 143.224 C 248.800 145.004,248.948 145.956,249.200 145.800 C 249.420 145.664,249.600 144.393,249.600 142.976 C 249.600 141.525,249.425 140.400,249.200 140.400 C 248.971 140.400,248.800 141.608,248.800 143.224 M248.800 147.376 C 248.800 147.939,248.980 148.400,249.200 148.400 C 249.420 148.400,249.600 148.051,249.600 147.624 C 249.600 147.197,249.420 146.736,249.200 146.600 C 248.973 146.460,248.800 146.796,248.800 147.376 M248.806 151.300 C 248.803 152.837,248.972 154.000,249.200 154.000 C 249.713 154.000,249.713 149.993,249.200 149.200 C 248.928 148.780,248.810 149.409,248.806 151.300 M249.039 155.137 C 248.725 155.645,248.857 167.200,249.177 167.200 C 249.329 167.200,249.483 164.410,249.518 161.000 C 249.580 155.097,249.519 154.360,249.039 155.137 M248.906 169.617 C 248.892 170.708,249.035 171.600,249.225 171.600 C 249.635 171.600,249.626 168.063,249.215 167.809 C 249.059 167.713,248.920 168.526,248.906 169.617 M258.900 188.598 C 258.105 189.501,258.175 277.832,258.971 278.629 C 259.632 279.290,260.400 279.382,260.400 278.800 C 260.400 278.580,260.675 278.400,261.011 278.400 C 261.346 278.400,262.425 277.635,263.407 276.700 C 267.318 272.977,267.997 272.399,268.489 272.373 C 268.770 272.359,270.350 270.915,272.000 269.165 C 273.650 267.416,276.665 264.323,278.701 262.292 C 289.540 251.479,291.716 249.282,295.200 245.634 C 297.290 243.446,299.306 241.643,299.680 241.628 C 300.055 241.613,301.630 240.349,303.180 238.819 C 307.066 234.987,307.039 234.430,302.765 230.400 C 301.015 228.750,297.742 225.555,295.492 223.300 C 291.668 219.468,287.713 215.511,278.701 206.500 C 276.665 204.465,272.976 200.775,270.502 198.300 C 259.863 187.658,259.785 187.593,258.900 188.598 M59.600 355.594 C 59.930 355.811,60.635 355.991,61.167 355.994 C 62.451 356.002,62.125 355.775,60.400 355.458 C 59.415 355.277,59.178 355.318,59.600 355.594 M73.105 358.283 C 73.602 358.379,74.322 358.375,74.705 358.275 C 75.087 358.175,74.680 358.096,73.800 358.101 C 72.920 358.105,72.607 358.187,73.105 358.283 M151.415 372.824 C 151.543 373.031,152.297 373.200,153.090 373.200 C 154.861 373.200,154.700 372.990,152.691 372.680 C 151.791 372.541,151.276 372.599,151.415 372.824 M161.100 374.682 C 161.595 374.778,162.405 374.778,162.900 374.682 C 163.395 374.587,162.990 374.509,162.000 374.509 C 161.010 374.509,160.605 374.587,161.100 374.682 " stroke="none" fill="#048c54" fill-rule="evenodd"></path><path id="path2" d="M232.294 12.239 C 231.976 12.557,225.166 13.751,223.500 13.781 C 222.895 13.791,222.400 13.935,222.400 14.100 C 222.400 14.265,221.914 14.400,221.319 14.400 C 220.093 14.400,212.434 15.838,210.572 16.418 C 209.896 16.628,208.490 16.800,207.448 16.800 C 206.406 16.800,205.649 16.955,205.766 17.145 C 205.884 17.335,205.039 17.624,203.890 17.787 C 201.253 18.160,198.367 18.654,195.800 19.171 C 192.185 19.900,189.428 20.398,187.600 20.653 C 186.610 20.791,185.615 21.050,185.388 21.228 C 185.162 21.406,183.947 21.593,182.688 21.644 C 181.430 21.695,180.400 21.886,180.400 22.068 C 180.400 22.251,179.601 22.400,178.624 22.400 C 177.647 22.400,176.736 22.580,176.600 22.800 C 176.464 23.020,175.463 23.200,174.376 23.200 C 173.289 23.200,172.400 23.380,172.400 23.600 C 172.400 23.820,171.692 24.000,170.826 24.000 C 169.960 24.000,168.799 24.172,168.246 24.383 C 167.692 24.593,166.521 24.808,165.643 24.859 C 164.766 24.911,164.138 25.099,164.247 25.277 C 164.357 25.455,163.462 25.600,162.257 25.600 C 161.052 25.600,160.007 25.770,159.933 25.978 C 159.860 26.185,158.773 26.396,157.518 26.445 C 156.263 26.495,155.318 26.668,155.418 26.829 C 155.518 26.991,154.745 27.219,153.700 27.335 C 151.664 27.563,147.484 28.188,145.200 28.605 C 141.553 29.271,139.234 29.668,137.390 29.943 C 136.284 30.107,135.158 30.379,134.887 30.546 C 134.617 30.713,133.631 30.860,132.698 30.871 C 131.764 30.883,130.905 31.043,130.788 31.228 C 130.671 31.412,129.654 31.616,128.528 31.681 C 127.402 31.747,126.563 31.935,126.664 32.100 C 126.826 32.365,124.585 32.592,123.330 32.437 C 123.072 32.405,122.746 32.564,122.607 32.789 C 122.467 33.015,121.409 33.200,120.256 33.200 C 119.103 33.200,117.989 33.349,117.780 33.532 C 117.389 33.873,113.055 34.759,111.100 34.897 C 110.495 34.940,110.000 35.115,110.000 35.287 C 110.000 35.459,109.111 35.600,108.024 35.600 C 106.937 35.600,105.936 35.780,105.800 36.000 C 105.664 36.220,104.563 36.400,103.353 36.400 C 101.988 36.400,101.247 36.552,101.400 36.800 C 101.600 37.123,99.211 37.362,97.745 37.166 C 97.604 37.147,97.375 37.316,97.236 37.542 C 97.096 37.768,96.050 37.995,94.911 38.047 C 93.772 38.099,92.932 38.289,93.044 38.471 C 93.156 38.652,92.373 38.800,91.304 38.800 C 90.235 38.800,89.189 38.962,88.980 39.159 C 88.608 39.511,87.006 39.805,83.000 40.257 C 81.900 40.381,80.805 40.641,80.566 40.835 C 80.327 41.030,79.292 41.220,78.266 41.259 C 77.240 41.298,76.400 41.481,76.400 41.665 C 76.400 41.849,75.601 42.000,74.624 42.000 C 73.647 42.000,72.736 42.180,72.600 42.400 C 72.464 42.620,71.499 42.800,70.456 42.800 C 69.413 42.800,68.389 42.963,68.180 43.161 C 67.971 43.360,66.900 43.624,65.800 43.749 C 61.897 44.191,60.814 44.359,59.474 44.729 C 58.728 44.934,57.641 45.051,57.059 44.987 C 56.477 44.923,56.000 45.005,56.000 45.169 C 56.000 45.333,55.775 45.476,55.500 45.488 C 55.225 45.500,54.370 45.634,53.600 45.786 C 49.431 46.611,48.006 46.854,46.093 47.066 C 44.934 47.195,43.888 47.458,43.769 47.650 C 43.650 47.843,42.699 48.000,41.656 48.000 C 40.613 48.000,39.589 48.170,39.380 48.377 C 39.171 48.585,38.055 48.797,36.900 48.849 C 35.745 48.901,34.800 49.091,34.800 49.271 C 34.800 49.452,34.341 49.600,33.781 49.600 C 33.220 49.600,32.016 49.960,31.106 50.400 C 30.195 50.840,29.203 51.200,28.901 51.200 C 28.600 51.200,28.464 51.380,28.600 51.600 C 28.736 51.820,28.579 52.000,28.251 52.000 C 27.922 52.000,27.541 52.356,27.403 52.792 C 27.264 53.227,27.027 53.566,26.876 53.545 C 26.004 53.420,25.600 53.691,25.600 54.400 C 25.600 54.840,25.420 55.200,25.200 55.200 C 24.980 55.200,24.800 55.478,24.800 55.817 C 24.800 56.156,24.440 56.820,24.000 57.292 C 23.203 58.147,23.200 58.704,23.200 199.596 C 23.200 342.766,23.204 343.183,24.500 343.197 C 24.665 343.199,24.800 343.560,24.800 344.000 C 24.800 344.440,24.980 344.800,25.200 344.800 C 25.420 344.800,25.600 345.014,25.600 345.275 C 25.600 345.908,28.714 348.645,30.100 349.232 C 30.705 349.488,31.200 349.810,31.201 349.949 C 31.201 350.087,31.921 350.249,32.800 350.310 C 33.679 350.370,34.861 350.595,35.425 350.810 C 35.990 351.024,36.944 351.200,37.546 351.200 C 38.148 351.200,38.811 351.363,39.020 351.561 C 39.229 351.760,40.210 352.013,41.200 352.124 C 43.778 352.412,46.105 352.808,46.800 353.077 C 47.130 353.205,48.120 353.384,49.000 353.474 C 49.880 353.565,51.230 353.809,52.000 354.017 C 52.770 354.225,53.895 354.397,54.500 354.398 C 55.105 354.399,55.600 354.591,55.600 354.824 C 55.600 355.057,55.782 355.135,56.003 354.998 C 56.225 354.861,58.520 355.157,61.103 355.657 C 63.687 356.156,66.160 356.573,66.600 356.582 C 67.040 356.592,67.606 356.793,67.858 357.029 C 68.110 357.265,69.100 357.439,70.058 357.415 C 71.016 357.391,71.890 357.491,72.000 357.638 C 72.110 357.785,73.100 358.018,74.200 358.155 C 79.003 358.753,79.821 358.902,80.180 359.241 C 80.389 359.438,81.525 359.600,82.704 359.600 C 83.883 359.600,84.756 359.748,84.644 359.929 C 84.532 360.111,85.376 360.301,86.520 360.352 C 87.664 360.403,88.660 360.614,88.733 360.822 C 88.807 361.030,89.741 361.200,90.810 361.200 C 91.878 361.200,92.864 361.380,93.000 361.600 C 93.136 361.820,94.227 362.000,95.424 362.000 C 96.621 362.000,97.600 362.180,97.600 362.400 C 97.600 362.620,98.399 362.800,99.376 362.800 C 100.353 362.800,101.264 362.980,101.400 363.200 C 101.536 363.420,102.432 363.600,103.390 363.600 C 104.349 363.600,105.193 363.770,105.267 363.978 C 105.340 364.185,106.435 364.396,107.700 364.446 C 108.965 364.496,110.000 364.652,110.000 364.794 C 110.000 364.935,110.849 365.094,111.887 365.148 C 112.924 365.202,113.959 365.395,114.187 365.578 C 114.584 365.897,115.763 366.104,120.300 366.647 C 121.455 366.786,122.400 367.040,122.400 367.213 C 122.400 367.385,123.345 367.616,124.500 367.725 C 127.649 368.025,130.175 368.462,130.400 368.747 C 130.510 368.886,131.500 369.061,132.600 369.136 C 133.700 369.211,134.771 369.436,134.980 369.636 C 135.189 369.836,136.224 370.000,137.280 370.000 C 138.336 370.000,139.200 370.180,139.200 370.400 C 139.200 370.620,139.999 370.800,140.976 370.800 C 141.953 370.800,142.857 370.969,142.984 371.175 C 143.112 371.381,143.887 371.555,144.708 371.562 C 146.210 371.574,146.896 371.688,148.000 372.107 C 148.330 372.232,149.837 372.446,151.348 372.583 C 154.781 372.894,154.946 372.926,155.243 373.332 C 155.377 373.514,156.457 373.744,157.643 373.842 C 158.829 373.941,159.845 374.153,159.901 374.313 C 159.956 374.474,160.811 374.541,161.801 374.463 C 162.930 374.373,163.600 374.483,163.600 374.760 C 163.600 375.002,163.735 375.179,163.900 375.153 C 165.016 374.976,168.010 375.260,167.845 375.526 C 167.735 375.706,168.489 375.896,169.522 375.949 C 170.555 376.002,171.571 376.215,171.780 376.422 C 171.989 376.630,173.099 376.800,174.247 376.800 C 175.394 376.800,176.393 376.970,176.467 377.178 C 176.540 377.386,177.555 377.598,178.721 377.650 C 179.888 377.702,180.933 377.892,181.045 378.072 C 181.156 378.253,181.946 378.400,182.800 378.400 C 183.654 378.400,184.464 378.580,184.600 378.800 C 184.736 379.020,185.701 379.200,186.744 379.200 C 187.787 379.200,188.811 379.363,189.020 379.561 C 189.229 379.760,190.255 380.030,191.300 380.161 C 192.345 380.293,194.055 380.507,195.100 380.639 C 196.145 380.770,197.171 381.040,197.380 381.239 C 197.589 381.437,198.624 381.600,199.680 381.600 C 200.736 381.600,201.600 381.745,201.600 381.922 C 201.600 382.099,202.360 382.288,203.290 382.343 C 204.219 382.398,205.074 382.568,205.190 382.721 C 205.452 383.069,205.805 383.132,208.135 383.253 C 209.161 383.306,210.000 383.464,210.000 383.603 C 210.000 383.743,210.945 383.899,212.100 383.951 C 213.255 384.002,214.260 384.214,214.333 384.422 C 214.407 384.630,215.251 384.800,216.210 384.800 C 217.168 384.800,218.064 384.980,218.200 385.200 C 218.336 385.420,219.326 385.600,220.400 385.600 C 221.474 385.600,222.450 385.757,222.569 385.950 C 222.688 386.142,223.734 386.406,224.893 386.536 C 226.052 386.666,227.900 386.975,229.000 387.222 C 232.927 388.107,240.171 388.072,241.146 387.165 C 241.616 386.727,242.000 386.473,242.000 386.600 C 242.000 386.727,242.225 386.641,242.500 386.409 C 242.775 386.176,243.765 385.448,244.700 384.790 C 245.635 384.133,246.400 383.326,246.400 382.997 C 246.400 382.669,246.536 382.400,246.702 382.400 C 246.869 382.400,247.240 381.815,247.529 381.100 C 247.817 380.385,248.201 379.519,248.383 379.174 C 248.565 378.830,248.730 331.692,248.750 274.423 C 248.776 201.412,248.914 170.144,249.213 169.784 C 249.509 169.428,249.511 169.192,249.219 169.012 C 248.989 168.869,248.800 168.483,248.800 168.153 C 248.800 167.823,248.980 167.664,249.200 167.800 C 249.420 167.936,249.600 167.872,249.600 167.657 C 249.600 167.442,249.375 167.185,249.100 167.086 C 248.703 166.942,248.701 166.733,249.092 166.071 C 249.402 165.546,249.439 165.147,249.192 164.995 C 248.976 164.862,248.800 163.133,248.800 161.153 C 248.800 158.379,248.915 157.622,249.300 157.853 C 249.686 158.085,249.695 158.022,249.339 157.577 C 248.672 156.741,248.631 149.154,249.292 148.735 C 249.692 148.481,249.693 148.411,249.300 148.406 C 249.025 148.403,248.800 147.939,248.800 147.376 C 248.800 146.664,248.952 146.444,249.300 146.653 C 249.613 146.841,249.585 146.688,249.226 146.246 C 248.732 145.638,248.661 136.865,248.717 83.388 C 248.760 43.212,248.645 21.151,248.392 20.995 C 248.176 20.862,248.000 20.313,248.000 19.776 C 248.000 19.239,247.820 18.800,247.600 18.800 C 247.380 18.800,247.200 18.530,247.200 18.200 C 247.200 17.870,247.020 17.600,246.800 17.600 C 246.580 17.600,246.400 17.210,246.400 16.733 C 246.400 16.257,246.296 15.971,246.169 16.098 C 246.042 16.225,245.393 15.850,244.728 15.265 C 242.335 13.157,242.125 12.998,241.567 12.862 C 241.255 12.786,240.640 12.635,240.200 12.527 C 239.180 12.276,232.501 12.032,232.294 12.239 M142.200 129.209 C 170.756 131.592,185.222 146.595,185.192 173.800 C 185.167 197.285,174.463 211.830,153.600 216.732 C 146.656 218.363,145.185 218.473,126.600 218.741 L 108.600 219.000 108.497 248.907 L 108.395 278.814 98.297 278.707 L 88.200 278.600 88.097 204.200 C 88.041 163.280,88.080 129.575,88.185 129.300 C 88.424 128.670,134.801 128.591,142.200 129.209 M108.584 145.700 C 108.479 145.975,108.440 158.800,108.496 174.200 L 108.600 202.200 121.800 202.321 C 148.254 202.564,157.248 198.844,161.791 185.782 C 168.062 167.747,160.005 150.327,143.600 146.451 C 138.227 145.182,109.021 144.555,108.584 145.700 " stroke="none" fill="#04a464" fill-rule="evenodd"></path></g></svg>