<svg id="svg" version="1.1" xmlns="http://www.w3.org/2000/svg" xmlns:xlink="http://www.w3.org/1999/xlink" width="400" height="400" viewBox="0, 0, 400,400"><g id="svgg"><path id="path0" d="M209.125 12.208 C 209.010 12.323,207.675 12.600,206.158 12.824 C 203.225 13.256,200.765 13.693,197.200 14.413 C 195.990 14.658,194.055 14.951,192.900 15.066 C 191.745 15.180,190.800 15.437,190.800 15.637 C 190.800 15.837,189.911 16.000,188.824 16.000 C 187.737 16.000,186.736 16.180,186.600 16.400 C 186.464 16.620,185.589 16.800,184.656 16.800 C 183.723 16.800,182.789 16.963,182.580 17.161 C 182.371 17.360,181.345 17.630,180.300 17.761 C 179.255 17.893,177.545 18.107,176.500 18.239 C 175.455 18.370,174.429 18.640,174.220 18.839 C 174.011 19.037,172.987 19.200,171.944 19.200 C 170.901 19.200,169.936 19.380,169.800 19.600 C 169.664 19.820,168.764 20.000,167.800 20.000 C 166.836 20.000,165.936 20.180,165.800 20.400 C 165.664 20.620,164.663 20.800,163.576 20.800 C 162.489 20.800,161.600 20.980,161.600 21.200 C 161.600 21.420,160.711 21.600,159.624 21.600 C 158.537 21.600,157.536 21.780,157.400 22.000 C 157.264 22.220,156.364 22.400,155.400 22.400 C 154.436 22.400,153.536 22.580,153.400 22.800 C 153.264 23.020,152.163 23.200,150.953 23.200 C 149.588 23.200,148.847 23.352,149.000 23.600 C 149.152 23.846,148.479 24.000,147.247 24.000 C 146.147 24.000,145.136 24.180,145.000 24.400 C 144.864 24.620,143.874 24.800,142.800 24.800 C 141.726 24.800,140.736 24.980,140.600 25.200 C 140.464 25.420,139.463 25.600,138.376 25.600 C 137.289 25.600,136.400 25.780,136.400 26.000 C 136.400 26.220,135.511 26.400,134.424 26.400 C 133.337 26.400,132.351 26.555,132.234 26.744 C 132.117 26.934,130.802 27.206,129.311 27.349 C 126.388 27.629,125.665 27.740,122.600 28.381 C 121.500 28.611,119.560 28.915,118.289 29.056 C 117.017 29.198,115.882 29.468,115.765 29.657 C 115.648 29.845,115.035 30.000,114.402 30.000 C 113.770 30.000,112.802 30.171,112.252 30.380 C 111.702 30.589,110.420 30.804,109.403 30.856 C 108.386 30.909,107.463 31.098,107.353 31.276 C 107.243 31.454,106.389 31.600,105.456 31.600 C 104.523 31.600,103.589 31.763,103.380 31.961 C 103.171 32.160,102.190 32.424,101.200 32.549 C 97.213 33.049,95.781 33.303,95.400 33.578 C 95.180 33.736,94.100 33.910,93.000 33.964 C 91.900 34.018,90.829 34.228,90.620 34.431 C 90.411 34.634,89.477 34.800,88.544 34.800 C 87.611 34.800,86.736 34.980,86.600 35.200 C 86.464 35.420,85.564 35.600,84.600 35.600 C 83.636 35.600,82.736 35.780,82.600 36.000 C 82.464 36.220,81.373 36.400,80.176 36.400 C 78.979 36.400,78.000 36.580,78.000 36.800 C 78.000 37.020,77.100 37.200,76.000 37.200 C 74.900 37.200,74.000 37.363,74.000 37.561 C 74.000 37.760,73.055 38.033,71.900 38.168 C 70.745 38.303,68.900 38.517,67.800 38.644 C 66.700 38.770,65.629 39.037,65.420 39.237 C 65.211 39.437,64.266 39.600,63.320 39.600 C 62.374 39.600,61.600 39.780,61.600 40.000 C 61.600 40.220,60.621 40.400,59.424 40.400 C 58.227 40.400,57.136 40.580,57.000 40.800 C 56.864 41.020,55.964 41.200,55.000 41.200 C 54.036 41.200,53.136 41.380,53.000 41.600 C 52.864 41.820,51.863 42.000,50.776 42.000 C 49.689 42.000,48.800 42.180,48.800 42.400 C 48.800 42.620,47.900 42.800,46.800 42.800 C 45.700 42.800,44.800 42.980,44.800 43.200 C 44.800 43.420,44.002 43.600,43.026 43.600 C 42.051 43.600,39.936 43.887,38.326 44.237 C 36.717 44.587,34.950 44.934,34.400 45.009 C 31.723 45.369,25.662 46.488,24.572 46.823 C 23.896 47.030,22.692 47.200,21.895 47.200 C 21.099 47.200,20.336 47.380,20.200 47.600 C 20.064 47.820,19.074 48.000,18.000 48.000 C 16.926 48.000,15.936 48.180,15.800 48.400 C 15.664 48.620,14.663 48.800,13.576 48.800 C 12.489 48.800,11.600 48.980,11.600 49.200 C 11.600 49.420,11.004 49.600,10.275 49.600 C 8.641 49.600,5.878 50.898,4.234 52.439 C 3.555 53.076,2.873 53.597,2.719 53.598 C 2.564 53.599,2.121 54.275,1.734 55.100 C 1.347 55.925,0.799 56.838,0.515 57.129 C -0.410 58.077,-0.226 341.669,0.700 343.338 C 1.085 344.032,1.535 344.660,1.700 344.733 C 1.865 344.807,2.000 345.212,2.000 345.633 C 2.000 346.055,2.178 346.400,2.395 346.400 C 2.760 346.400,3.798 347.147,4.970 348.254 C 5.920 349.151,8.791 350.400,9.904 350.400 C 10.529 350.400,11.211 350.563,11.420 350.761 C 11.629 350.960,12.655 351.230,13.700 351.361 C 14.745 351.493,16.455 351.707,17.500 351.839 C 18.545 351.970,19.571 352.240,19.780 352.439 C 19.989 352.637,21.013 352.800,22.056 352.800 C 23.099 352.800,24.050 352.957,24.169 353.150 C 24.288 353.342,25.334 353.613,26.493 353.752 C 31.196 354.315,32.217 354.498,32.580 354.841 C 32.789 355.038,33.586 355.200,34.352 355.200 C 35.117 355.200,36.296 355.370,36.972 355.578 C 38.305 355.989,44.661 357.163,46.600 357.357 C 47.260 357.423,48.250 357.625,48.800 357.805 C 49.889 358.162,50.034 358.184,54.300 358.620 C 55.895 358.783,57.200 359.070,57.200 359.258 C 57.200 359.446,58.100 359.600,59.200 359.600 C 60.300 359.600,61.200 359.780,61.200 360.000 C 61.200 360.220,62.190 360.400,63.400 360.400 C 64.610 360.400,65.600 360.580,65.600 360.800 C 65.600 361.020,66.500 361.200,67.600 361.200 C 68.700 361.200,69.600 361.380,69.600 361.600 C 69.600 361.820,70.489 362.000,71.576 362.000 C 72.663 362.000,73.664 362.180,73.800 362.400 C 73.936 362.620,74.937 362.800,76.024 362.800 C 77.111 362.800,78.000 362.980,78.000 363.200 C 78.000 363.420,78.900 363.600,80.000 363.600 C 81.100 363.600,82.000 363.780,82.000 364.000 C 82.000 364.220,82.990 364.400,84.200 364.400 C 85.410 364.400,86.400 364.580,86.400 364.800 C 86.400 365.020,87.300 365.200,88.400 365.200 C 89.500 365.200,90.400 365.346,90.400 365.525 C 90.400 365.704,91.249 365.894,92.287 365.948 C 93.324 366.002,94.359 366.197,94.587 366.382 C 94.814 366.567,95.900 366.817,97.000 366.938 C 100.302 367.301,102.155 367.630,103.000 368.004 C 103.440 368.199,104.610 368.447,105.600 368.556 C 106.590 368.664,108.390 368.953,109.600 369.197 C 110.810 369.441,112.520 369.742,113.400 369.865 C 114.280 369.989,115.180 370.218,115.400 370.375 C 115.620 370.531,116.610 370.707,117.600 370.766 C 118.590 370.825,119.580 371.005,119.800 371.166 C 120.020 371.327,121.010 371.507,122.000 371.566 C 122.990 371.625,123.980 371.817,124.200 371.993 C 124.420 372.170,125.500 372.419,126.600 372.546 C 127.700 372.674,128.870 372.810,129.200 372.848 C 129.530 372.887,131.420 373.274,133.400 373.708 C 135.380 374.142,138.665 374.684,140.700 374.912 C 142.735 375.141,144.400 375.479,144.400 375.664 C 144.400 375.849,145.390 376.000,146.600 376.000 C 147.810 376.000,148.800 376.180,148.800 376.400 C 148.800 376.620,149.700 376.800,150.800 376.800 C 151.900 376.800,152.800 376.980,152.800 377.200 C 152.800 377.420,153.689 377.600,154.776 377.600 C 155.863 377.600,156.864 377.780,157.000 378.000 C 157.136 378.220,158.126 378.400,159.200 378.400 C 160.274 378.400,161.264 378.580,161.400 378.800 C 161.536 379.020,162.537 379.200,163.624 379.200 C 164.711 379.200,165.600 379.363,165.600 379.561 C 165.600 379.760,166.455 380.025,167.500 380.151 C 172.636 380.767,173.428 380.904,173.780 381.239 C 173.989 381.437,174.988 381.600,176.000 381.600 C 177.012 381.600,178.011 381.763,178.220 381.961 C 178.429 382.160,179.455 382.430,180.500 382.561 C 181.545 382.693,183.255 382.907,184.300 383.039 C 185.345 383.170,186.371 383.440,186.580 383.639 C 186.789 383.837,187.698 384.000,188.600 384.000 C 189.502 384.000,190.411 384.163,190.620 384.361 C 190.829 384.560,191.810 384.821,192.800 384.942 C 193.790 385.063,195.635 385.351,196.900 385.581 C 202.528 386.606,203.526 386.795,205.600 387.228 C 215.513 389.298,221.744 386.974,224.599 380.141 C 225.304 378.454,225.535 22.564,224.833 20.115 C 224.384 18.551,221.281 14.400,220.560 14.400 C 220.397 14.400,219.979 14.148,219.631 13.839 C 218.184 12.553,210.043 11.290,209.125 12.208 M120.200 138.182 C 132.993 140.450,142.073 145.119,151.742 154.400 C 189.073 190.231,179.223 263.363,134.469 282.649 C 133.221 283.187,131.840 283.783,131.400 283.973 C 129.854 284.642,128.340 285.090,123.400 286.342 C 114.144 288.688,100.765 287.301,91.424 283.028 C 90.188 282.463,89.107 282.000,89.023 282.000 C 86.346 282.000,72.227 270.532,67.914 264.854 C 66.972 263.614,66.097 262.510,65.969 262.400 C 64.386 261.043,56.400 246.691,56.400 245.204 C 56.400 244.850,56.241 244.389,56.047 244.180 C 55.649 243.753,54.493 240.390,53.302 236.200 C 49.690 223.489,49.041 208.340,51.587 196.200 C 51.818 195.100,52.111 193.660,52.239 193.000 C 52.471 191.799,53.657 187.608,54.616 184.600 C 62.154 160.946,81.253 142.651,102.600 138.635 C 104.360 138.304,106.160 137.956,106.600 137.863 C 108.509 137.457,117.271 137.663,120.200 138.182 M108.600 162.846 C 101.164 164.173,95.557 167.161,89.985 172.767 C 87.296 175.473,84.400 179.116,84.400 179.794 C 84.400 179.931,83.680 181.104,82.800 182.400 C 81.920 183.696,81.200 185.000,81.200 185.298 C 81.200 185.596,81.047 186.011,80.860 186.220 C 80.486 186.637,78.515 191.495,77.946 193.400 C 73.853 207.118,74.440 223.617,79.447 235.600 C 97.117 277.883,141.879 268.417,149.432 220.800 C 150.656 213.084,150.074 205.154,147.567 195.400 C 142.221 174.596,124.714 159.971,108.600 162.846 " stroke="none" fill="#2494f4" fill-rule="evenodd"></path><path id="path1" d="M106.600 137.863 C 106.160 137.956,104.360 138.304,102.600 138.635 C 81.253 142.651,62.154 160.946,54.616 184.600 C 53.657 187.608,52.471 191.799,52.239 193.000 C 52.111 193.660,51.818 195.100,51.587 196.200 C 49.041 208.340,49.690 223.489,53.302 236.200 C 54.493 240.390,55.649 243.753,56.047 244.180 C 56.241 244.389,56.400 244.850,56.400 245.204 C 56.400 246.691,64.386 261.043,65.969 262.400 C 66.097 262.510,66.972 263.614,67.914 264.854 C 72.227 270.532,86.346 282.000,89.023 282.000 C 89.107 282.000,90.188 282.463,91.424 283.028 C 100.765 287.301,114.144 288.688,123.400 286.342 C 128.340 285.090,129.854 284.642,131.400 283.973 C 131.840 283.783,133.221 283.187,134.469 282.649 C 153.139 274.604,168.446 253.863,173.178 230.200 C 182.638 182.899,152.610 137.325,112.200 137.654 C 109.560 137.675,107.040 137.769,106.600 137.863 M117.002 162.965 C 132.499 165.692,144.469 179.810,148.744 200.400 C 155.106 231.051,136.700 262.476,112.436 262.386 C 85.961 262.287,68.069 226.501,77.946 193.400 C 78.515 191.495,80.486 186.637,80.860 186.220 C 81.047 186.011,81.200 185.596,81.200 185.298 C 81.200 185.000,81.920 183.696,82.800 182.400 C 83.680 181.104,84.400 179.931,84.400 179.794 C 84.400 179.116,87.296 175.473,89.985 172.767 C 97.920 164.784,107.529 161.298,117.002 162.965 " stroke="none" fill="#fafbfb" fill-rule="evenodd"></path><path id="path2" d="M225.200 100.000 L 225.200 112.800 287.100 112.821 C 345.446 112.841,348.944 112.881,348.020 113.521 C 347.481 113.894,346.634 114.605,346.138 115.100 C 345.642 115.595,345.132 116.000,345.005 116.000 C 344.878 116.000,344.143 116.630,343.373 117.400 C 342.603 118.170,341.805 118.800,341.600 118.800 C 341.395 118.800,340.597 119.430,339.827 120.200 C 339.057 120.970,338.241 121.600,338.014 121.600 C 337.787 121.600,336.859 122.320,335.952 123.200 C 335.045 124.080,334.139 124.800,333.938 124.800 C 333.738 124.800,332.943 125.430,332.173 126.200 C 331.403 126.970,330.589 127.600,330.363 127.600 C 329.871 127.600,327.154 129.695,325.305 131.500 C 324.573 132.215,323.805 132.800,323.600 132.800 C 323.395 132.800,322.597 133.430,321.827 134.200 C 321.057 134.970,320.223 135.600,319.974 135.600 C 319.725 135.600,319.017 136.140,318.400 136.800 C 317.783 137.460,317.103 138.000,316.888 138.000 C 316.673 138.000,315.755 138.720,314.848 139.600 C 313.941 140.480,313.046 141.200,312.859 141.200 C 312.672 141.200,311.954 141.740,311.263 142.400 C 310.572 143.060,309.832 143.600,309.617 143.600 C 309.402 143.600,308.597 144.230,307.827 145.000 C 307.057 145.770,306.223 146.400,305.974 146.400 C 305.725 146.400,305.017 146.940,304.400 147.600 C 303.783 148.260,303.103 148.800,302.888 148.800 C 302.673 148.800,301.755 149.520,300.848 150.400 C 299.941 151.280,299.002 152.000,298.760 152.000 C 298.519 152.000,297.817 152.540,297.200 153.200 C 296.583 153.860,295.946 154.400,295.783 154.400 C 295.620 154.400,294.971 154.940,294.340 155.600 C 293.709 156.260,293.036 156.800,292.845 156.800 C 292.653 156.800,291.755 157.520,290.848 158.400 C 289.941 159.280,288.972 160.000,288.695 160.000 C 288.418 160.000,287.744 160.410,287.196 160.911 C 286.648 161.413,285.570 162.259,284.800 162.792 C 284.030 163.326,283.109 164.086,282.753 164.481 C 282.397 164.876,281.979 165.200,281.825 165.200 C 281.670 165.200,281.314 165.425,281.035 165.700 C 280.755 165.975,279.926 166.650,279.191 167.200 C 278.457 167.750,277.264 168.785,276.541 169.500 C 274.838 171.185,271.732 170.755,270.867 168.714 C 270.793 168.542,270.428 168.400,270.055 168.400 C 269.682 168.400,269.117 168.040,268.800 167.600 C 268.483 167.160,267.986 166.800,267.695 166.800 C 267.404 166.800,266.780 166.440,266.308 166.000 C 265.836 165.560,265.213 165.200,264.925 165.200 C 264.636 165.200,264.400 165.020,264.400 164.800 C 264.400 164.580,264.164 164.400,263.875 164.400 C 263.587 164.400,262.964 164.040,262.492 163.600 C 262.020 163.160,261.438 162.800,261.200 162.800 C 260.962 162.800,260.406 162.464,259.965 162.053 C 259.524 161.642,258.496 160.967,257.681 160.553 C 256.867 160.139,256.110 159.710,256.000 159.599 C 255.890 159.489,255.305 159.144,254.700 158.832 C 254.095 158.520,253.600 158.115,253.600 157.932 C 253.600 157.750,253.280 157.600,252.888 157.600 C 252.497 157.600,251.917 157.240,251.600 156.800 C 251.283 156.360,250.703 156.000,250.312 156.000 C 249.920 156.000,249.600 155.820,249.600 155.600 C 249.600 155.380,249.330 155.200,249.000 155.200 C 248.670 155.200,248.400 155.020,248.400 154.800 C 248.400 154.580,248.130 154.400,247.800 154.400 C 247.470 154.400,247.200 154.220,247.200 154.000 C 247.200 153.780,246.964 153.600,246.675 153.600 C 246.387 153.600,245.764 153.240,245.292 152.800 C 244.820 152.360,244.222 152.000,243.964 152.000 C 243.705 152.000,243.203 151.684,242.847 151.297 C 242.491 150.911,241.708 150.342,241.107 150.033 C 240.505 149.725,239.658 149.141,239.223 148.736 C 238.789 148.331,238.238 148.000,238.000 148.000 C 237.762 148.000,237.180 147.640,236.708 147.200 C 236.236 146.760,235.613 146.400,235.325 146.400 C 235.036 146.400,234.800 146.232,234.800 146.027 C 234.800 145.822,234.461 145.546,234.048 145.415 C 233.634 145.284,232.886 144.822,232.386 144.388 C 231.887 143.955,231.145 143.600,230.739 143.600 C 230.332 143.600,230.000 143.420,230.000 143.200 C 230.000 142.980,229.764 142.800,229.475 142.800 C 229.187 142.800,228.564 142.440,228.092 142.000 C 227.620 141.560,226.956 141.200,226.617 141.200 C 226.278 141.200,226.000 141.020,226.000 140.800 C 226.000 140.580,225.820 140.400,225.600 140.400 C 225.132 140.400,225.040 171.165,225.506 171.800 C 225.936 172.385,228.306 174.000,228.735 174.000 C 228.937 174.000,229.326 174.270,229.600 174.600 C 229.874 174.930,230.370 175.200,230.702 175.200 C 231.034 175.200,231.597 175.515,231.953 175.900 C 232.309 176.285,232.870 176.659,233.200 176.730 C 233.530 176.802,233.860 177.027,233.933 177.230 C 234.007 177.434,234.322 177.600,234.633 177.600 C 234.945 177.600,235.200 177.780,235.200 178.000 C 235.200 178.220,235.470 178.400,235.800 178.400 C 236.130 178.400,236.400 178.580,236.400 178.800 C 236.400 179.020,236.720 179.200,237.112 179.200 C 237.503 179.200,238.083 179.560,238.400 180.000 C 238.717 180.440,239.297 180.800,239.688 180.800 C 240.080 180.800,240.400 180.980,240.400 181.200 C 240.400 181.420,240.805 181.603,241.300 181.606 C 242.028 181.611,242.085 181.686,241.600 182.000 C 241.090 182.330,241.108 182.389,241.717 182.394 C 242.111 182.397,242.789 182.731,243.223 183.136 C 243.658 183.541,244.505 184.126,245.107 184.436 C 245.708 184.746,246.549 185.315,246.975 185.700 C 247.402 186.085,247.987 186.400,248.275 186.400 C 248.564 186.400,248.800 186.558,248.800 186.751 C 248.800 186.945,249.340 187.327,250.000 187.600 C 250.660 187.873,251.200 188.255,251.200 188.449 C 251.200 188.642,251.560 188.800,252.000 188.800 C 252.440 188.800,252.800 188.950,252.800 189.132 C 252.800 189.315,253.295 189.720,253.900 190.032 C 254.505 190.345,255.238 190.825,255.529 191.100 C 255.819 191.375,256.365 191.600,256.740 191.600 C 257.116 191.600,257.683 191.960,258.000 192.400 C 258.317 192.840,258.897 193.200,259.288 193.200 C 259.680 193.200,260.000 193.380,260.000 193.600 C 260.000 193.820,260.270 194.000,260.600 194.000 C 260.930 194.000,261.200 194.150,261.200 194.332 C 261.200 194.515,261.695 194.919,262.300 195.230 C 262.905 195.540,263.691 196.111,264.047 196.497 C 264.403 196.884,264.988 197.200,265.347 197.200 C 265.706 197.200,266.000 197.380,266.000 197.600 C 266.000 197.820,266.255 198.000,266.567 198.000 C 266.878 198.000,267.193 198.143,267.267 198.319 C 267.934 199.914,280.000 201.507,280.000 200.000 C 280.000 199.780,280.236 199.600,280.525 199.600 C 280.813 199.600,281.436 199.240,281.908 198.800 C 282.380 198.360,283.004 198.000,283.295 198.000 C 283.586 198.000,284.083 197.640,284.400 197.200 C 284.717 196.760,285.207 196.400,285.488 196.400 C 285.770 196.400,286.000 196.220,286.000 196.000 C 286.000 195.780,286.198 195.600,286.440 195.600 C 286.681 195.600,287.383 195.060,288.000 194.400 C 288.617 193.740,289.319 193.200,289.560 193.200 C 289.802 193.200,290.000 193.020,290.000 192.800 C 290.000 192.580,290.270 192.400,290.600 192.400 C 290.930 192.400,291.200 192.225,291.200 192.010 C 291.200 191.796,291.695 191.364,292.300 191.051 C 292.905 190.737,293.983 189.923,294.696 189.240 C 295.409 188.558,296.148 188.000,296.337 188.000 C 296.526 188.000,297.246 187.460,297.937 186.800 C 298.628 186.140,299.374 185.600,299.596 185.600 C 299.818 185.600,300.000 185.420,300.000 185.200 C 300.000 184.980,300.198 184.800,300.440 184.800 C 300.681 184.800,301.383 184.260,302.000 183.600 C 302.617 182.940,303.276 182.400,303.465 182.400 C 303.846 182.400,306.613 180.110,308.661 178.100 C 309.390 177.385,310.193 176.800,310.446 176.800 C 310.699 176.800,311.197 176.476,311.553 176.079 C 311.909 175.683,312.892 174.938,313.738 174.423 C 314.584 173.909,315.700 173.063,316.220 172.544 C 316.739 172.025,317.325 171.600,317.522 171.600 C 317.720 171.600,318.413 171.105,319.063 170.500 C 319.712 169.895,321.044 168.777,322.022 168.015 C 323.000 167.253,323.860 166.488,323.933 166.315 C 324.007 166.142,324.249 166.000,324.473 166.000 C 324.696 166.000,325.383 165.460,326.000 164.800 C 326.617 164.140,327.297 163.600,327.512 163.600 C 327.727 163.600,328.645 162.880,329.552 162.000 C 330.459 161.120,331.405 160.400,331.654 160.400 C 331.902 160.400,332.397 160.076,332.753 159.679 C 333.109 159.283,334.030 158.571,334.800 158.098 C 335.570 157.624,336.650 156.818,337.200 156.307 C 337.750 155.796,338.828 154.935,339.595 154.394 C 341.192 153.268,341.735 152.816,343.733 150.947 C 344.525 150.206,345.377 149.600,345.626 149.600 C 345.875 149.600,346.583 149.060,347.200 148.400 C 347.817 147.740,348.497 147.200,348.712 147.200 C 348.927 147.200,349.845 146.480,350.752 145.600 C 351.659 144.720,352.554 144.000,352.741 144.000 C 352.928 144.000,353.646 143.460,354.337 142.800 C 355.028 142.140,355.739 141.600,355.918 141.600 C 356.097 141.600,356.931 140.970,357.772 140.200 C 358.613 139.430,359.423 138.800,359.572 138.800 C 359.721 138.800,360.531 138.170,361.372 137.400 C 362.213 136.630,363.052 136.000,363.237 136.000 C 363.422 136.000,364.203 135.370,364.973 134.600 C 365.743 133.830,366.533 133.200,366.727 133.200 C 366.922 133.200,367.646 132.660,368.337 132.000 C 369.028 131.340,369.774 130.800,369.996 130.800 C 370.218 130.800,370.400 130.620,370.400 130.400 C 370.400 130.180,370.598 130.000,370.840 130.000 C 371.081 130.000,371.783 129.460,372.400 128.800 C 373.017 128.140,373.704 127.600,373.927 127.600 C 374.151 127.600,374.424 127.375,374.535 127.100 C 374.646 126.825,374.751 162.735,374.768 206.900 L 374.800 287.200 300.000 287.200 L 225.200 287.200 225.200 300.000 L 225.200 312.800 308.800 312.800 C 364.267 312.800,392.400 312.665,392.400 312.400 C 392.400 312.180,392.760 312.000,393.200 312.000 C 393.640 312.000,394.000 311.820,394.000 311.600 C 394.000 311.380,394.275 311.200,394.611 311.200 C 395.368 311.200,398.391 308.194,399.200 306.635 C 400.024 305.047,400.123 93.974,399.300 93.700 C 399.025 93.608,398.800 93.260,398.800 92.927 C 398.800 92.195,395.293 88.800,394.536 88.800 C 394.241 88.800,394.000 88.620,394.000 88.400 C 394.000 88.180,393.651 88.000,393.224 88.000 C 392.797 88.000,392.336 87.820,392.200 87.600 C 392.036 87.335,363.729 87.200,308.576 87.200 L 225.200 87.200 225.200 100.000 M222.784 383.223 C 222.305 383.896,221.979 384.513,222.061 384.594 C 222.143 384.676,222.614 384.126,223.108 383.371 C 224.223 381.671,223.971 381.556,222.784 383.223 " stroke="none" fill="#1c74d4" fill-rule="evenodd"></path></g></svg>