<svg id="svg" version="1.1" xmlns="http://www.w3.org/2000/svg" xmlns:xlink="http://www.w3.org/1999/xlink" width="400" height="400" viewBox="0, 0, 400,400"><g id="svgg"><path id="path0" d="M225.200 99.401 L 225.200 136.802 226.666 135.101 C 233.789 126.836,244.081 119.493,252.800 116.457 C 254.230 115.959,255.760 115.396,256.200 115.206 C 256.640 115.016,257.540 114.749,258.200 114.612 C 258.860 114.476,260.120 114.188,261.000 113.972 C 263.947 113.249,267.369 112.773,271.300 112.539 L 275.200 112.307 275.200 143.553 L 275.200 174.800 306.436 174.800 L 337.673 174.800 337.465 178.900 C 336.898 190.118,330.652 207.579,325.625 212.000 C 325.500 212.110,324.642 213.190,323.719 214.400 C 300.264 245.134,251.350 245.169,226.286 214.469 L 225.200 213.139 225.200 237.769 L 225.200 262.400 282.500 262.406 C 327.846 262.411,340.092 262.518,341.200 262.921 C 352.415 266.995,353.235 281.718,342.520 286.620 L 340.376 287.600 282.788 287.600 L 225.200 287.600 225.200 312.800 L 225.200 338.000 308.188 338.000 L 391.176 338.000 393.409 336.979 C 395.652 335.953,398.800 333.153,398.800 332.185 C 398.800 331.900,399.025 331.592,399.300 331.500 C 399.699 331.367,399.800 304.711,399.800 200.000 C 399.800 95.289,399.699 68.633,399.300 68.500 C 399.025 68.408,398.800 68.114,398.800 67.845 C 398.800 67.576,398.170 66.669,397.400 65.828 C 396.630 64.987,396.000 64.425,396.000 64.578 C 396.000 64.732,395.736 64.619,395.414 64.329 C 392.664 61.848,398.350 62.000,308.072 62.000 L 225.200 62.000 225.200 99.401 M309.200 88.006 C 322.992 90.128,334.634 96.112,344.600 106.201 C 350.690 112.367,355.304 119.275,357.958 126.200 C 358.464 127.520,359.029 128.960,359.213 129.400 C 359.397 129.840,359.739 130.875,359.974 131.700 C 360.208 132.525,360.566 133.785,360.770 134.500 C 361.797 138.114,363.083 148.819,362.586 149.623 C 362.443 149.854,350.281 150.000,331.176 150.000 L 300.000 150.000 300.000 118.800 L 300.000 87.600 303.300 87.603 C 305.115 87.605,307.770 87.786,309.200 88.006 M84.800 138.057 C 80.279 139.299,77.535 141.800,75.958 146.115 C 75.056 148.582,74.743 275.243,75.632 278.040 C 79.546 290.363,96.141 290.258,99.434 277.890 C 99.872 276.245,99.992 271.732,99.995 256.700 L 100.000 237.600 111.700 237.596 C 134.427 237.588,142.060 235.947,152.841 228.754 C 185.264 207.122,180.406 156.325,144.527 141.810 C 140.128 140.030,140.254 140.072,136.000 138.989 C 130.855 137.680,88.949 136.917,84.800 138.057 M132.374 163.515 C 155.883 171.728,155.977 203.255,132.517 211.459 L 129.400 212.549 114.800 212.574 L 100.200 212.600 100.097 187.482 L 99.994 162.364 114.897 162.490 C 129.145 162.610,129.913 162.655,132.374 163.515 " stroke="none" fill="#efeef5" fill-rule="evenodd"></path><path id="path1" d="M207.200 12.400 C 206.870 12.613,205.846 12.791,204.924 12.794 C 204.002 12.797,203.136 12.980,203.000 13.200 C 202.864 13.420,201.964 13.600,201.000 13.600 C 200.036 13.600,199.136 13.780,199.000 14.000 C 198.864 14.220,197.874 14.400,196.800 14.400 C 195.726 14.400,194.736 14.580,194.600 14.800 C 194.464 15.020,193.463 15.200,192.376 15.200 C 191.289 15.200,190.400 15.380,190.400 15.600 C 190.400 15.820,189.500 16.000,188.400 16.000 C 187.300 16.000,186.400 16.180,186.400 16.400 C 186.400 16.620,185.421 16.800,184.224 16.800 C 183.027 16.800,181.936 16.980,181.800 17.200 C 181.664 17.420,180.753 17.600,179.776 17.600 C 178.799 17.600,178.000 17.780,178.000 18.000 C 178.000 18.220,177.100 18.400,176.000 18.400 C 174.900 18.400,174.000 18.580,174.000 18.800 C 174.000 19.020,173.021 19.200,171.824 19.200 C 170.627 19.200,169.536 19.380,169.400 19.600 C 169.264 19.820,168.263 20.000,167.176 20.000 C 166.089 20.000,165.200 20.180,165.200 20.400 C 165.200 20.620,164.300 20.800,163.200 20.800 C 162.100 20.800,161.200 20.980,161.200 21.200 C 161.200 21.420,160.210 21.600,159.000 21.600 C 157.790 21.600,156.800 21.780,156.800 22.000 C 156.800 22.220,155.900 22.400,154.800 22.400 C 153.700 22.400,152.800 22.580,152.800 22.800 C 152.800 23.020,151.900 23.200,150.800 23.200 C 149.700 23.200,148.800 23.380,148.800 23.600 C 148.800 23.820,147.810 24.000,146.600 24.000 C 145.390 24.000,144.400 24.180,144.400 24.400 C 144.400 24.620,143.500 24.800,142.400 24.800 C 141.300 24.800,140.400 24.980,140.400 25.200 C 140.400 25.420,139.500 25.600,138.400 25.600 C 137.300 25.600,136.400 25.780,136.400 26.000 C 136.400 26.220,135.421 26.400,134.224 26.400 C 133.027 26.400,131.946 26.563,131.823 26.763 C 131.700 26.962,129.889 27.254,127.799 27.410 C 125.710 27.567,124.000 27.837,124.000 28.011 C 124.000 28.184,123.055 28.427,121.900 28.550 C 117.277 29.043,115.783 29.294,115.420 29.639 C 115.211 29.837,114.266 30.000,113.320 30.000 C 112.374 30.000,111.600 30.163,111.600 30.363 C 111.600 30.704,110.899 30.819,105.100 31.431 C 103.835 31.565,102.800 31.837,102.800 32.037 C 102.800 32.237,101.900 32.400,100.800 32.400 C 99.700 32.400,98.800 32.580,98.800 32.800 C 98.800 33.020,97.810 33.200,96.600 33.200 C 95.390 33.200,94.400 33.380,94.400 33.600 C 94.400 33.820,93.500 34.000,92.400 34.000 C 91.300 34.000,90.400 34.180,90.400 34.400 C 90.400 34.620,89.500 34.800,88.400 34.800 C 87.300 34.800,86.400 34.980,86.400 35.200 C 86.400 35.420,85.421 35.600,84.224 35.600 C 83.027 35.600,81.936 35.780,81.800 36.000 C 81.664 36.220,80.764 36.400,79.800 36.400 C 78.836 36.400,77.936 36.580,77.800 36.800 C 77.664 37.020,76.753 37.200,75.776 37.200 C 74.799 37.200,74.000 37.380,74.000 37.600 C 74.000 37.820,73.021 38.000,71.824 38.000 C 70.627 38.000,69.536 38.180,69.400 38.400 C 69.264 38.620,68.263 38.800,67.176 38.800 C 66.089 38.800,65.200 38.980,65.200 39.200 C 65.200 39.420,64.300 39.600,63.200 39.600 C 62.100 39.600,61.200 39.780,61.200 40.000 C 61.200 40.220,60.210 40.400,59.000 40.400 C 57.790 40.400,56.800 40.580,56.800 40.800 C 56.800 41.020,55.900 41.200,54.800 41.200 C 53.700 41.200,52.800 41.380,52.800 41.600 C 52.800 41.820,51.900 42.000,50.800 42.000 C 49.700 42.000,48.800 42.180,48.800 42.400 C 48.800 42.620,47.810 42.800,46.600 42.800 C 45.390 42.800,44.400 42.959,44.400 43.152 C 44.400 43.346,42.690 43.633,40.601 43.790 C 38.511 43.946,36.700 44.238,36.577 44.437 C 36.454 44.637,35.474 44.800,34.400 44.800 C 33.326 44.800,32.336 44.980,32.200 45.200 C 32.064 45.420,31.164 45.600,30.200 45.600 C 29.236 45.600,28.336 45.780,28.200 46.000 C 28.064 46.220,27.063 46.400,25.976 46.400 C 24.889 46.400,24.000 46.563,24.000 46.763 C 24.000 46.963,23.055 47.227,21.900 47.350 C 17.277 47.843,15.783 48.094,15.420 48.439 C 15.211 48.637,14.277 48.800,13.344 48.800 C 12.411 48.800,11.536 48.980,11.400 49.200 C 11.264 49.420,10.454 49.600,9.600 49.600 C 8.746 49.600,7.936 49.780,7.800 50.000 C 7.664 50.220,7.243 50.400,6.865 50.400 C 6.486 50.400,5.917 50.760,5.600 51.200 C 5.283 51.640,4.838 52.000,4.612 52.000 C 3.906 52.001,2.000 53.860,2.000 54.547 C 2.000 54.906,1.841 55.200,1.646 55.200 C -0.071 55.200,0.000 48.964,0.000 200.000 C 0.000 351.036,-0.071 344.800,1.646 344.800 C 1.841 344.800,2.000 345.094,2.000 345.453 C 2.000 346.140,3.906 347.999,4.612 348.000 C 4.838 348.000,5.283 348.360,5.600 348.800 C 5.917 349.240,6.497 349.600,6.888 349.600 C 7.280 349.600,7.600 349.780,7.600 350.000 C 7.600 350.220,8.309 350.400,9.176 350.400 C 10.043 350.400,10.864 350.580,11.000 350.800 C 11.136 351.020,12.137 351.200,13.224 351.200 C 14.311 351.200,15.200 351.380,15.200 351.600 C 15.200 351.820,16.064 352.000,17.120 352.000 C 18.176 352.000,19.211 352.163,19.420 352.361 C 19.629 352.560,20.655 352.830,21.700 352.961 C 22.745 353.093,24.455 353.307,25.500 353.439 C 26.545 353.570,27.571 353.840,27.780 354.039 C 27.989 354.237,28.923 354.400,29.856 354.400 C 30.789 354.400,31.664 354.580,31.800 354.800 C 31.936 355.020,32.926 355.200,34.000 355.200 C 35.074 355.200,36.064 355.380,36.200 355.600 C 36.336 355.820,37.326 356.000,38.400 356.000 C 39.474 356.000,40.464 356.180,40.600 356.400 C 40.736 356.620,41.611 356.800,42.544 356.800 C 43.477 356.800,44.411 356.963,44.620 357.161 C 45.014 357.536,45.818 357.665,52.700 358.463 C 54.955 358.724,56.800 359.087,56.800 359.269 C 56.800 359.451,57.700 359.600,58.800 359.600 C 59.900 359.600,60.800 359.780,60.800 360.000 C 60.800 360.220,61.790 360.400,63.000 360.400 C 64.210 360.400,65.200 360.580,65.200 360.800 C 65.200 361.020,66.100 361.200,67.200 361.200 C 68.300 361.200,69.200 361.380,69.200 361.600 C 69.200 361.820,70.089 362.000,71.176 362.000 C 72.263 362.000,73.264 362.180,73.400 362.400 C 73.536 362.620,74.526 362.800,75.600 362.800 C 76.674 362.800,77.664 362.980,77.800 363.200 C 77.936 363.420,78.836 363.600,79.800 363.600 C 80.764 363.600,81.664 363.780,81.800 364.000 C 81.936 364.220,82.836 364.400,83.800 364.400 C 84.764 364.400,85.664 364.580,85.800 364.800 C 85.936 365.020,87.027 365.200,88.224 365.200 C 89.421 365.200,90.400 365.380,90.400 365.600 C 90.400 365.820,91.300 366.000,92.400 366.000 C 93.500 366.000,94.400 366.180,94.400 366.400 C 94.400 366.620,95.289 366.800,96.376 366.800 C 97.463 366.800,98.464 366.980,98.600 367.200 C 98.736 367.420,99.737 367.600,100.824 367.600 C 101.911 367.600,102.800 367.780,102.800 368.000 C 102.800 368.220,103.700 368.400,104.800 368.400 C 105.900 368.400,106.800 368.580,106.800 368.800 C 106.800 369.020,107.689 369.200,108.776 369.200 C 109.863 369.200,110.864 369.380,111.000 369.600 C 111.136 369.820,112.137 370.000,113.224 370.000 C 114.311 370.000,115.200 370.180,115.200 370.400 C 115.200 370.620,116.064 370.800,117.120 370.800 C 118.176 370.800,119.211 370.963,119.420 371.161 C 119.629 371.360,120.610 371.624,121.600 371.749 C 126.244 372.332,127.053 372.469,127.800 372.800 C 128.240 372.995,129.410 373.261,130.400 373.390 C 131.390 373.519,133.010 373.729,134.000 373.856 C 134.990 373.982,135.980 374.228,136.200 374.402 C 136.420 374.576,138.355 374.848,140.500 375.007 C 142.645 375.165,144.400 375.454,144.400 375.648 C 144.400 375.841,145.300 376.000,146.400 376.000 C 147.500 376.000,148.400 376.180,148.400 376.400 C 148.400 376.620,149.390 376.800,150.600 376.800 C 151.810 376.800,152.800 376.980,152.800 377.200 C 152.800 377.420,153.700 377.600,154.800 377.600 C 155.900 377.600,156.800 377.780,156.800 378.000 C 156.800 378.220,157.689 378.400,158.776 378.400 C 159.863 378.400,160.864 378.580,161.000 378.800 C 161.136 379.020,162.137 379.200,163.224 379.200 C 164.311 379.200,165.200 379.380,165.200 379.600 C 165.200 379.820,166.100 380.000,167.200 380.000 C 168.300 380.000,169.200 380.180,169.200 380.400 C 169.200 380.620,170.089 380.800,171.176 380.800 C 172.263 380.800,173.264 380.980,173.400 381.200 C 173.536 381.420,174.526 381.600,175.600 381.600 C 176.674 381.600,177.664 381.780,177.800 382.000 C 177.936 382.220,178.836 382.400,179.800 382.400 C 180.764 382.400,181.664 382.580,181.800 382.800 C 181.936 383.020,182.926 383.200,184.000 383.200 C 185.074 383.200,186.064 383.380,186.200 383.600 C 186.336 383.820,187.337 384.000,188.424 384.000 C 189.511 384.000,190.400 384.180,190.400 384.400 C 190.400 384.620,191.300 384.800,192.400 384.800 C 193.500 384.800,194.400 384.980,194.400 385.200 C 194.400 385.420,195.289 385.600,196.376 385.600 C 197.463 385.600,198.464 385.780,198.600 386.000 C 198.736 386.220,199.737 386.400,200.824 386.400 C 201.911 386.400,202.800 386.580,202.800 386.800 C 202.800 387.020,203.689 387.200,204.776 387.200 C 205.863 387.200,206.864 387.380,207.000 387.600 C 207.505 388.416,216.881 388.076,218.000 387.200 C 218.550 386.770,219.225 386.414,219.500 386.409 C 219.775 386.404,220.000 386.220,220.000 386.000 C 220.000 385.780,220.283 385.600,220.629 385.600 C 221.406 385.600,221.867 385.137,223.619 382.600 L 225.000 380.600 225.000 334.000 L 225.000 287.400 282.600 287.200 L 340.200 287.000 342.400 285.965 C 352.450 281.237,351.683 267.267,341.167 263.492 C 340.121 263.117,326.310 262.954,282.400 262.801 L 225.000 262.600 224.896 238.000 C 224.783 211.046,224.751 211.586,226.310 213.612 C 227.888 215.664,234.755 222.481,236.600 223.828 C 237.480 224.470,238.290 225.113,238.400 225.256 C 238.510 225.399,240.040 226.397,241.800 227.473 C 258.657 237.779,277.815 239.849,296.200 233.350 C 298.867 232.407,306.377 228.899,306.800 228.398 C 306.910 228.268,307.842 227.675,308.872 227.081 C 309.901 226.486,310.981 225.775,311.272 225.500 C 311.562 225.225,312.520 224.472,313.400 223.828 C 315.472 222.309,322.316 215.464,323.825 213.400 C 324.469 212.520,325.098 211.710,325.224 211.600 C 325.751 211.139,328.000 207.624,328.000 207.261 C 328.000 207.044,328.141 206.807,328.313 206.733 C 329.181 206.364,333.514 196.460,334.658 192.232 C 335.894 187.664,337.200 179.331,337.200 176.016 C 337.200 175.202,337.134 175.200,306.000 175.200 L 274.800 175.200 274.800 144.000 C 274.800 114.551,274.761 112.800,274.100 112.803 C 273.136 112.808,263.986 113.935,263.000 114.171 C 262.560 114.276,261.000 114.645,259.532 114.991 C 254.301 116.226,246.838 119.303,243.328 121.672 C 242.408 122.292,241.555 122.800,241.431 122.800 C 241.202 122.800,238.656 124.660,235.800 126.914 C 233.770 128.517,228.596 133.682,226.819 135.880 C 226.072 136.805,225.282 137.451,225.065 137.316 C 224.804 137.156,224.762 117.242,224.942 79.224 C 225.092 47.408,225.104 20.822,224.969 20.144 C 224.692 18.762,222.216 15.306,221.022 14.636 C 220.594 14.396,219.885 13.885,219.446 13.500 C 219.008 13.115,218.334 12.800,217.948 12.800 C 217.563 12.800,217.136 12.620,217.000 12.400 C 216.681 11.884,207.999 11.884,207.200 12.400 M300.400 118.613 L 300.400 149.600 331.435 149.600 L 362.470 149.600 362.221 148.100 C 362.084 147.275,361.806 145.070,361.603 143.200 C 361.223 139.702,360.754 136.995,360.043 134.200 C 359.819 133.320,359.516 132.102,359.370 131.494 C 359.224 130.886,358.946 130.290,358.752 130.170 C 358.559 130.051,358.400 129.601,358.400 129.171 C 358.400 128.741,358.238 128.077,358.040 127.695 C 357.842 127.313,356.969 125.470,356.098 123.600 C 349.979 110.448,340.141 100.595,326.600 94.057 C 324.620 93.100,322.687 92.157,322.305 91.959 C 321.923 91.762,321.259 91.600,320.829 91.600 C 320.399 91.600,319.936 91.420,319.800 91.200 C 319.664 90.980,319.124 90.800,318.600 90.800 C 318.076 90.800,317.548 90.640,317.427 90.444 C 317.306 90.249,316.621 89.986,315.904 89.861 C 315.187 89.736,313.610 89.443,312.400 89.210 C 311.190 88.977,308.220 88.608,305.800 88.388 C 303.380 88.169,301.175 87.908,300.900 87.808 C 300.503 87.663,300.400 93.992,300.400 118.613 M132.400 137.780 C 136.412 138.430,140.844 139.549,141.380 140.047 C 141.589 140.241,142.012 140.400,142.319 140.400 C 143.093 140.400,149.438 143.500,151.472 144.872 C 152.392 145.492,153.337 146.000,153.572 146.000 C 153.807 146.000,154.000 146.141,154.000 146.314 C 154.000 146.486,154.585 146.973,155.299 147.395 C 160.410 150.414,168.087 160.338,171.394 168.200 C 171.764 169.080,172.232 170.113,172.434 170.495 C 172.635 170.877,172.800 171.541,172.800 171.971 C 172.800 172.401,172.960 172.852,173.156 172.973 C 173.351 173.094,173.615 173.779,173.741 174.496 C 173.867 175.213,174.190 176.970,174.459 178.400 C 175.336 183.060,174.957 198.409,173.950 199.031 C 173.757 199.150,173.600 199.630,173.600 200.097 C 173.600 206.161,163.947 221.134,156.430 226.731 C 155.643 227.316,154.910 227.898,154.800 228.024 C 152.901 230.195,143.209 234.825,137.800 236.146 C 132.196 237.513,130.887 237.600,115.787 237.600 L 100.434 237.600 100.317 257.900 C 100.185 280.857,100.307 279.949,96.852 283.697 C 90.899 290.156,79.662 288.480,76.053 280.594 C 75.753 279.937,75.348 279.087,75.153 278.705 C 74.675 277.766,74.688 147.401,75.166 146.495 C 75.368 146.113,75.838 145.100,76.212 144.244 C 77.463 141.377,80.423 138.940,84.200 137.667 C 86.170 137.004,128.218 137.102,132.400 137.780 M100.400 187.620 L 100.400 212.440 113.700 212.266 C 129.292 212.062,131.241 211.814,136.107 209.424 C 150.973 202.121,154.134 181.660,142.176 170.143 C 135.542 163.753,131.763 162.800,113.067 162.800 L 100.400 162.800 100.400 187.620 " stroke="none" fill="#ed6e04" fill-rule="evenodd"></path><path id="path2" d="M224.898 99.676 C 224.844 120.288,224.949 137.245,225.130 137.357 C 225.312 137.469,226.072 136.805,226.819 135.880 C 228.596 133.682,233.770 128.517,235.800 126.914 C 238.656 124.660,241.202 122.800,241.431 122.800 C 241.555 122.800,242.408 122.292,243.328 121.672 C 246.838 119.303,254.301 116.226,259.532 114.991 C 261.000 114.645,262.560 114.276,263.000 114.171 C 263.986 113.935,273.136 112.808,274.100 112.803 C 274.761 112.800,274.800 114.551,274.800 144.000 L 274.800 175.200 306.000 175.200 C 337.134 175.200,337.200 175.202,337.200 176.016 C 337.200 179.331,335.894 187.664,334.658 192.232 C 333.514 196.460,329.181 206.364,328.313 206.733 C 328.141 206.807,328.000 207.044,328.000 207.261 C 328.000 207.624,325.751 211.139,325.224 211.600 C 325.098 211.710,324.469 212.520,323.825 213.400 C 322.316 215.464,315.472 222.309,313.400 223.828 C 312.520 224.472,311.562 225.225,311.272 225.500 C 310.981 225.775,309.901 226.486,308.872 227.081 C 307.842 227.675,306.910 228.268,306.800 228.398 C 306.377 228.899,298.867 232.407,296.200 233.350 C 277.815 239.849,258.657 237.779,241.800 227.473 C 240.040 226.397,238.510 225.399,238.400 225.256 C 238.290 225.113,237.480 224.470,236.600 223.828 C 234.755 222.481,227.888 215.664,226.310 213.612 C 224.751 211.586,224.783 211.046,224.896 238.000 L 225.000 262.600 282.400 262.801 C 326.310 262.954,340.121 263.117,341.167 263.492 C 351.683 267.267,352.450 281.237,342.400 285.965 L 340.200 287.000 282.600 287.200 L 225.000 287.400 224.995 312.500 L 224.991 337.600 225.098 312.600 L 225.206 287.600 282.791 287.600 L 340.376 287.600 342.520 286.620 C 353.235 281.718,352.415 266.995,341.200 262.921 C 340.092 262.518,327.846 262.411,282.500 262.406 L 225.200 262.400 225.200 237.769 L 225.200 213.139 226.286 214.469 C 249.677 243.119,292.570 245.524,318.920 219.662 C 320.636 217.978,322.796 215.610,323.719 214.400 C 324.642 213.190,325.500 212.110,325.625 212.000 C 330.652 207.579,336.898 190.118,337.465 178.900 L 337.673 174.800 306.436 174.800 L 275.200 174.800 275.200 143.553 L 275.200 112.307 271.300 112.539 C 267.369 112.773,263.947 113.249,261.000 113.972 C 260.120 114.188,258.860 114.476,258.200 114.612 C 257.540 114.749,256.640 115.016,256.200 115.206 C 255.760 115.396,254.230 115.959,252.800 116.457 C 244.082 119.493,233.788 126.836,226.668 135.099 L 225.204 136.798 225.100 99.499 L 224.996 62.200 224.898 99.676 M300.098 118.700 L 300.000 150.000 331.176 150.000 C 350.281 150.000,362.443 149.854,362.586 149.623 C 363.083 148.819,361.797 138.114,360.770 134.500 C 360.566 133.785,360.208 132.525,359.974 131.700 C 359.739 130.875,359.397 129.840,359.213 129.400 C 359.029 128.960,358.464 127.520,357.958 126.200 C 355.304 119.275,350.690 112.367,344.600 106.201 C 333.229 94.690,317.361 87.504,303.600 87.635 C 299.710 87.672,300.350 87.891,305.800 88.387 C 308.220 88.607,311.190 88.977,312.400 89.210 C 313.610 89.443,315.187 89.736,315.904 89.861 C 316.621 89.986,317.306 90.249,317.427 90.444 C 317.548 90.640,318.076 90.800,318.600 90.800 C 319.124 90.800,319.664 90.980,319.800 91.200 C 319.936 91.420,320.399 91.600,320.829 91.600 C 321.259 91.600,321.923 91.762,322.305 91.959 C 322.687 92.157,324.620 93.100,326.600 94.057 C 340.141 100.595,349.979 110.448,356.098 123.600 C 356.969 125.470,357.842 127.313,358.040 127.695 C 358.238 128.077,358.400 128.741,358.400 129.171 C 358.400 129.601,358.559 130.051,358.752 130.170 C 358.946 130.290,359.224 130.886,359.370 131.494 C 359.516 132.102,359.819 133.320,360.043 134.200 C 360.754 136.995,361.223 139.702,361.603 143.200 C 361.806 145.070,362.084 147.275,362.221 148.100 L 362.470 149.600 331.438 149.600 L 300.405 149.600 300.300 118.500 L 300.195 87.400 300.098 118.700 M84.200 137.667 C 80.423 138.940,77.463 141.377,76.212 144.244 C 75.838 145.100,75.368 146.113,75.166 146.495 C 74.688 147.401,74.675 277.766,75.153 278.705 C 75.348 279.087,75.753 279.937,76.053 280.594 C 79.662 288.480,90.899 290.156,96.852 283.697 C 100.322 279.932,100.197 280.893,100.219 257.800 L 100.239 237.400 100.007 257.400 C 99.849 270.975,99.626 277.822,99.311 278.714 C 95.198 290.376,79.408 289.926,75.632 278.040 C 74.743 275.243,75.056 148.582,75.958 146.115 C 77.565 141.717,80.300 139.271,85.000 138.028 C 87.554 137.352,126.435 137.496,131.200 138.199 C 135.556 138.842,139.135 139.641,141.000 140.387 C 146.068 142.413,147.719 143.195,150.523 144.899 C 191.786 169.961,177.087 232.956,129.000 237.142 L 125.000 237.490 128.069 237.545 C 133.835 237.648,142.550 235.263,148.785 231.876 C 150.921 230.716,154.387 228.496,154.800 228.024 C 154.910 227.898,155.643 227.316,156.430 226.731 C 163.947 221.134,173.600 206.161,173.600 200.097 C 173.600 199.630,173.757 199.150,173.950 199.031 C 174.957 198.409,175.336 183.060,174.459 178.400 C 174.190 176.970,173.867 175.213,173.741 174.496 C 173.615 173.779,173.351 173.094,173.156 172.973 C 172.960 172.852,172.800 172.401,172.800 171.971 C 172.800 171.541,172.635 170.877,172.434 170.495 C 172.232 170.113,171.764 169.080,171.394 168.200 C 168.087 160.338,160.410 150.414,155.299 147.395 C 154.585 146.973,154.000 146.486,154.000 146.314 C 154.000 146.141,153.807 146.000,153.572 146.000 C 153.337 146.000,152.392 145.492,151.472 144.872 C 149.438 143.500,143.093 140.400,142.319 140.400 C 142.012 140.400,141.589 140.241,141.380 140.047 C 140.844 139.549,136.412 138.430,132.400 137.780 C 128.218 137.102,86.170 137.004,84.200 137.667 M100.097 187.482 L 100.200 212.600 114.800 212.574 L 129.400 212.549 132.517 211.459 C 155.977 203.255,155.883 171.728,132.374 163.515 C 129.913 162.655,129.145 162.610,114.897 162.490 L 99.994 162.364 100.097 187.482 M128.367 163.239 C 155.940 167.838,156.608 206.723,129.200 211.693 C 127.990 211.912,121.015 212.170,113.700 212.266 L 100.400 212.440 100.400 187.620 L 100.400 162.800 113.067 162.800 C 120.398 162.800,126.844 162.985,128.367 163.239 " stroke="none" fill="#f4a45e" fill-rule="evenodd"></path></g></svg>