<svg id="svg" version="1.1" xmlns="http://www.w3.org/2000/svg" xmlns:xlink="http://www.w3.org/1999/xlink" width="400" height="400" viewBox="0, 0, 400,400"><g id="svgg"><path id="path0" d="M136.926 43.591 L 25.024 87.109 25.012 206.252 L 25.000 325.395 136.917 362.697 C 198.472 383.214,249.360 400.003,250.003 400.007 C 250.646 400.012,279.033 391.665,313.086 381.459 L 375.000 362.903 375.000 200.000 L 375.000 37.097 313.086 18.541 C 279.033 8.335,250.645 0.005,250.000 0.029 C 249.355 0.053,198.472 19.656,136.926 43.591 M250.000 213.350 L 250.000 350.919 247.070 350.480 C 245.459 350.238,240.625 349.655,236.328 349.184 C 232.031 348.712,227.461 348.180,226.172 348.002 C 224.883 347.823,206.953 345.731,186.328 343.353 C 149.288 339.081,133.092 337.199,112.500 334.772 C 97.897 333.052,71.626 330.029,51.172 327.715 C 33.849 325.756,27.863 324.995,27.581 324.715 C 27.496 324.631,43.756 319.128,63.714 312.486 L 100.000 300.410 100.000 200.394 L 100.000 100.378 172.852 88.162 C 212.920 81.443,246.670 75.909,247.852 75.864 L 250.000 75.781 250.000 213.350 " stroke="none" fill="#ff5722" fill-rule="evenodd"></path></g></svg>