<svg id="svg" version="1.1" xmlns="http://www.w3.org/2000/svg" xmlns:xlink="http://www.w3.org/1999/xlink" width="400" height="400" viewBox="0, 0, 400,400"><g id="svgg"><path id="path0" d="M225.200 87.200 L 225.200 112.400 245.205 112.400 C 256.208 112.400,265.523 112.560,265.905 112.756 C 266.287 112.952,267.464 113.525,268.519 114.029 C 270.664 115.053,272.827 117.234,273.705 119.259 C 275.047 122.350,275.200 122.938,275.200 125.004 C 275.200 130.288,271.575 135.268,266.400 137.094 C 265.362 137.460,259.855 137.590,245.100 137.594 L 225.200 137.600 225.200 150.000 L 225.200 162.400 245.205 162.400 C 256.546 162.400,265.512 162.559,265.905 162.766 C 266.287 162.968,267.294 163.435,268.141 163.805 C 271.135 165.110,272.976 167.315,274.749 171.719 C 276.469 175.989,273.772 182.887,269.293 185.672 C 266.224 187.580,266.126 187.588,245.100 187.594 L 225.200 187.600 225.200 200.000 L 225.200 212.400 245.205 212.400 C 256.546 212.400,265.512 212.559,265.905 212.766 C 266.287 212.968,267.294 213.435,268.141 213.805 C 271.135 215.110,272.976 217.315,274.749 221.719 C 276.469 225.989,273.772 232.887,269.293 235.672 C 266.224 237.580,266.126 237.588,245.100 237.594 L 225.200 237.600 225.200 250.000 L 225.200 262.400 245.205 262.400 C 256.208 262.400,265.523 262.560,265.905 262.756 C 266.287 262.952,267.464 263.525,268.519 264.029 C 270.664 265.053,272.827 267.234,273.705 269.259 C 275.047 272.350,275.200 272.938,275.200 275.004 C 275.200 280.288,271.575 285.268,266.400 287.094 C 265.362 287.460,259.855 287.590,245.100 287.594 L 225.200 287.600 225.200 312.800 L 225.200 338.000 308.188 338.000 L 391.176 338.000 393.409 336.979 C 395.652 335.953,398.800 333.153,398.800 332.185 C 398.800 331.900,399.025 331.592,399.300 331.500 C 399.699 331.367,399.800 304.711,399.800 200.000 C 399.800 95.289,399.699 68.633,399.300 68.500 C 399.025 68.408,398.800 68.114,398.800 67.845 C 398.800 67.576,398.170 66.669,397.400 65.828 C 396.630 64.987,396.000 64.425,396.000 64.578 C 396.000 64.732,395.736 64.619,395.414 64.329 C 392.664 61.848,398.350 62.000,308.072 62.000 L 225.200 62.000 225.200 87.200 M341.200 112.921 C 352.418 116.996,353.220 131.725,342.491 136.633 L 340.376 137.600 325.207 137.600 C 314.904 137.600,309.679 137.456,308.919 137.150 C 306.203 136.058,305.694 135.743,303.873 134.021 C 296.973 127.500,299.443 116.496,308.600 112.959 C 310.388 112.268,339.311 112.234,341.200 112.921 M159.200 125.750 C 155.135 127.104,154.530 127.655,148.400 135.592 C 146.310 138.298,143.790 141.555,142.800 142.830 C 141.810 144.105,140.191 146.195,139.203 147.474 C 138.215 148.753,135.778 151.870,133.787 154.400 C 129.922 159.311,124.841 165.842,123.200 168.008 C 122.650 168.734,120.964 170.874,119.454 172.764 C 117.943 174.654,116.619 176.425,116.511 176.700 C 116.027 177.931,114.594 176.670,108.600 169.745 C 105.080 165.677,101.929 162.046,101.599 161.675 C 101.268 161.304,99.828 159.655,98.399 158.011 C 96.969 156.367,95.350 154.521,94.800 153.909 C 94.250 153.296,91.640 150.311,89.000 147.275 C 80.443 137.434,76.799 135.890,69.659 139.078 C 62.899 142.096,60.626 152.396,65.517 157.847 C 65.893 158.266,67.370 159.955,68.800 161.601 C 70.230 163.247,71.962 165.225,72.649 165.997 C 73.336 166.768,75.383 169.110,77.199 171.200 C 79.015 173.290,80.973 175.540,81.550 176.200 C 82.128 176.860,83.770 178.750,85.200 180.400 C 86.630 182.050,87.892 183.490,88.004 183.600 C 88.116 183.710,90.721 186.680,93.793 190.200 C 96.866 193.720,99.519 196.660,99.690 196.733 C 100.457 197.063,98.229 200.646,95.009 204.259 C 94.784 204.512,93.298 206.402,91.706 208.459 C 90.115 210.517,86.065 215.729,82.706 220.042 C 79.348 224.356,76.150 228.475,75.600 229.196 C 75.050 229.917,72.399 233.318,69.708 236.753 C 63.467 244.723,63.023 245.602,63.010 250.000 C 62.983 259.261,72.042 264.996,80.325 260.961 C 83.034 259.642,83.704 258.961,88.946 252.200 C 91.163 249.340,93.073 246.910,93.190 246.800 C 93.306 246.690,94.211 245.520,95.200 244.200 C 96.189 242.880,97.088 241.710,97.199 241.600 C 97.399 241.401,98.214 240.353,101.707 235.800 C 110.480 224.366,116.501 216.800,116.826 216.800 C 116.992 216.800,117.620 217.384,118.220 218.097 C 118.820 218.810,120.351 220.565,121.622 221.997 C 124.270 224.980,135.126 237.391,138.400 241.179 C 139.610 242.578,141.427 244.641,142.439 245.762 C 143.450 246.883,146.150 249.960,148.439 252.600 C 154.799 259.936,155.789 260.770,159.560 261.968 C 165.028 263.705,171.766 260.078,173.959 254.218 C 176.099 248.497,174.473 244.502,166.461 235.800 C 165.651 234.920,163.285 232.220,161.204 229.800 C 159.123 227.380,157.319 225.310,157.195 225.200 C 157.071 225.090,153.198 220.680,148.588 215.400 C 138.561 203.916,138.703 204.077,135.801 200.800 C 131.882 196.375,131.959 196.868,134.659 193.449 C 135.946 191.818,137.720 189.546,138.600 188.400 C 140.027 186.541,143.221 182.434,144.519 180.790 C 144.783 180.454,146.166 178.654,147.590 176.790 C 149.015 174.925,151.895 171.223,153.990 168.561 C 156.086 165.900,158.198 163.200,158.685 162.561 C 159.172 161.923,162.455 157.710,165.981 153.200 C 173.244 143.909,174.503 141.751,174.722 138.220 C 175.227 130.085,166.716 123.248,159.200 125.750 M341.200 162.921 C 352.418 166.996,353.220 181.725,342.491 186.633 L 340.376 187.600 325.207 187.600 C 314.904 187.600,309.679 187.456,308.919 187.150 C 306.203 186.058,305.694 185.743,303.873 184.021 C 296.973 177.500,299.443 166.496,308.600 162.959 C 310.388 162.268,339.311 162.234,341.200 162.921 M341.200 212.921 C 352.418 216.996,353.220 231.725,342.491 236.633 L 340.376 237.600 325.207 237.600 C 314.904 237.600,309.679 237.456,308.919 237.150 C 306.203 236.058,305.694 235.743,303.873 234.021 C 296.973 227.500,299.443 216.496,308.600 212.959 C 310.388 212.268,339.311 212.234,341.200 212.921 M341.200 262.921 C 352.418 266.996,353.220 281.725,342.491 286.633 L 340.376 287.600 325.207 287.600 C 314.904 287.600,309.679 287.456,308.919 287.150 C 306.203 286.058,305.694 285.743,303.873 284.021 C 296.973 277.500,299.443 266.496,308.600 262.959 C 310.388 262.268,339.311 262.234,341.200 262.921 " stroke="none" fill="#eeeef4" fill-rule="evenodd"></path><path id="path1" d="M207.200 12.400 C 206.870 12.613,205.846 12.791,204.924 12.794 C 204.002 12.797,203.136 12.980,203.000 13.200 C 202.864 13.420,201.964 13.600,201.000 13.600 C 200.036 13.600,199.136 13.780,199.000 14.000 C 198.864 14.220,197.874 14.400,196.800 14.400 C 195.726 14.400,194.736 14.580,194.600 14.800 C 194.464 15.020,193.463 15.200,192.376 15.200 C 191.289 15.200,190.400 15.380,190.400 15.600 C 190.400 15.820,189.500 16.000,188.400 16.000 C 187.300 16.000,186.400 16.180,186.400 16.400 C 186.400 16.620,185.421 16.800,184.224 16.800 C 183.027 16.800,181.936 16.980,181.800 17.200 C 181.664 17.420,180.753 17.600,179.776 17.600 C 178.799 17.600,178.000 17.780,178.000 18.000 C 178.000 18.220,177.100 18.400,176.000 18.400 C 174.900 18.400,174.000 18.580,174.000 18.800 C 174.000 19.020,173.021 19.200,171.824 19.200 C 170.627 19.200,169.536 19.380,169.400 19.600 C 169.264 19.820,168.263 20.000,167.176 20.000 C 166.089 20.000,165.200 20.180,165.200 20.400 C 165.200 20.620,164.300 20.800,163.200 20.800 C 162.100 20.800,161.200 20.980,161.200 21.200 C 161.200 21.420,160.210 21.600,159.000 21.600 C 157.790 21.600,156.800 21.780,156.800 22.000 C 156.800 22.220,155.900 22.400,154.800 22.400 C 153.700 22.400,152.800 22.580,152.800 22.800 C 152.800 23.020,151.900 23.200,150.800 23.200 C 149.700 23.200,148.800 23.380,148.800 23.600 C 148.800 23.820,147.810 24.000,146.600 24.000 C 145.390 24.000,144.400 24.180,144.400 24.400 C 144.400 24.620,143.500 24.800,142.400 24.800 C 141.300 24.800,140.400 24.980,140.400 25.200 C 140.400 25.420,139.500 25.600,138.400 25.600 C 137.300 25.600,136.400 25.780,136.400 26.000 C 136.400 26.220,135.421 26.400,134.224 26.400 C 133.027 26.400,131.946 26.563,131.823 26.763 C 131.700 26.962,129.889 27.254,127.799 27.410 C 125.710 27.567,124.000 27.837,124.000 28.011 C 124.000 28.184,123.055 28.427,121.900 28.550 C 117.277 29.043,115.783 29.294,115.420 29.639 C 115.211 29.837,114.266 30.000,113.320 30.000 C 112.374 30.000,111.600 30.163,111.600 30.363 C 111.600 30.704,110.899 30.819,105.100 31.431 C 103.835 31.565,102.800 31.837,102.800 32.037 C 102.800 32.237,101.900 32.400,100.800 32.400 C 99.700 32.400,98.800 32.580,98.800 32.800 C 98.800 33.020,97.810 33.200,96.600 33.200 C 95.390 33.200,94.400 33.380,94.400 33.600 C 94.400 33.820,93.500 34.000,92.400 34.000 C 91.300 34.000,90.400 34.180,90.400 34.400 C 90.400 34.620,89.500 34.800,88.400 34.800 C 87.300 34.800,86.400 34.980,86.400 35.200 C 86.400 35.420,85.421 35.600,84.224 35.600 C 83.027 35.600,81.936 35.780,81.800 36.000 C 81.664 36.220,80.764 36.400,79.800 36.400 C 78.836 36.400,77.936 36.580,77.800 36.800 C 77.664 37.020,76.753 37.200,75.776 37.200 C 74.799 37.200,74.000 37.380,74.000 37.600 C 74.000 37.820,73.021 38.000,71.824 38.000 C 70.627 38.000,69.536 38.180,69.400 38.400 C 69.264 38.620,68.263 38.800,67.176 38.800 C 66.089 38.800,65.200 38.980,65.200 39.200 C 65.200 39.420,64.300 39.600,63.200 39.600 C 62.100 39.600,61.200 39.780,61.200 40.000 C 61.200 40.220,60.210 40.400,59.000 40.400 C 57.790 40.400,56.800 40.580,56.800 40.800 C 56.800 41.020,55.900 41.200,54.800 41.200 C 53.700 41.200,52.800 41.380,52.800 41.600 C 52.800 41.820,51.900 42.000,50.800 42.000 C 49.700 42.000,48.800 42.180,48.800 42.400 C 48.800 42.620,47.810 42.800,46.600 42.800 C 45.390 42.800,44.400 42.959,44.400 43.152 C 44.400 43.346,42.690 43.633,40.601 43.790 C 38.511 43.946,36.700 44.238,36.577 44.437 C 36.454 44.637,35.474 44.800,34.400 44.800 C 33.326 44.800,32.336 44.980,32.200 45.200 C 32.064 45.420,31.164 45.600,30.200 45.600 C 29.236 45.600,28.336 45.780,28.200 46.000 C 28.064 46.220,27.063 46.400,25.976 46.400 C 24.889 46.400,24.000 46.563,24.000 46.763 C 24.000 46.963,23.055 47.227,21.900 47.350 C 17.277 47.843,15.783 48.094,15.420 48.439 C 15.211 48.637,14.277 48.800,13.344 48.800 C 12.411 48.800,11.536 48.980,11.400 49.200 C 11.264 49.420,10.454 49.600,9.600 49.600 C 8.746 49.600,7.936 49.780,7.800 50.000 C 7.664 50.220,7.243 50.400,6.865 50.400 C 6.486 50.400,5.917 50.760,5.600 51.200 C 5.283 51.640,4.838 52.000,4.612 52.000 C 3.906 52.001,2.000 53.860,2.000 54.547 C 2.000 54.906,1.841 55.200,1.646 55.200 C -0.071 55.200,0.000 48.964,0.000 200.000 C 0.000 351.036,-0.071 344.800,1.646 344.800 C 1.841 344.800,2.000 345.079,2.000 345.419 C 2.000 346.078,3.920 347.966,4.612 347.987 C 4.838 347.994,5.283 348.360,5.600 348.800 C 5.917 349.240,6.497 349.600,6.888 349.600 C 7.280 349.600,7.600 349.780,7.600 350.000 C 7.600 350.220,8.309 350.400,9.176 350.400 C 10.043 350.400,10.864 350.580,11.000 350.800 C 11.136 351.020,12.137 351.200,13.224 351.200 C 14.311 351.200,15.200 351.380,15.200 351.600 C 15.200 351.820,16.064 352.000,17.120 352.000 C 18.176 352.000,19.211 352.163,19.420 352.361 C 19.629 352.560,20.655 352.830,21.700 352.961 C 22.745 353.093,24.455 353.307,25.500 353.439 C 26.545 353.570,27.571 353.840,27.780 354.039 C 27.989 354.237,28.923 354.400,29.856 354.400 C 30.789 354.400,31.664 354.580,31.800 354.800 C 31.936 355.020,32.926 355.200,34.000 355.200 C 35.074 355.200,36.064 355.380,36.200 355.600 C 36.336 355.820,37.326 356.000,38.400 356.000 C 39.474 356.000,40.464 356.180,40.600 356.400 C 40.736 356.620,41.611 356.800,42.544 356.800 C 43.477 356.800,44.411 356.963,44.620 357.161 C 45.014 357.536,45.818 357.665,52.700 358.463 C 54.955 358.724,56.800 359.087,56.800 359.269 C 56.800 359.451,57.700 359.600,58.800 359.600 C 59.900 359.600,60.800 359.780,60.800 360.000 C 60.800 360.220,61.790 360.400,63.000 360.400 C 64.210 360.400,65.200 360.580,65.200 360.800 C 65.200 361.020,66.100 361.200,67.200 361.200 C 68.300 361.200,69.200 361.380,69.200 361.600 C 69.200 361.820,70.089 362.000,71.176 362.000 C 72.263 362.000,73.264 362.180,73.400 362.400 C 73.536 362.620,74.526 362.800,75.600 362.800 C 76.674 362.800,77.664 362.980,77.800 363.200 C 77.936 363.420,78.836 363.600,79.800 363.600 C 80.764 363.600,81.664 363.780,81.800 364.000 C 81.936 364.220,82.836 364.400,83.800 364.400 C 84.764 364.400,85.664 364.580,85.800 364.800 C 85.936 365.020,87.027 365.200,88.224 365.200 C 89.421 365.200,90.400 365.380,90.400 365.600 C 90.400 365.820,91.300 366.000,92.400 366.000 C 93.500 366.000,94.400 366.180,94.400 366.400 C 94.400 366.620,95.289 366.800,96.376 366.800 C 97.463 366.800,98.464 366.980,98.600 367.200 C 98.736 367.420,99.737 367.600,100.824 367.600 C 101.911 367.600,102.800 367.780,102.800 368.000 C 102.800 368.220,103.700 368.400,104.800 368.400 C 105.900 368.400,106.800 368.580,106.800 368.800 C 106.800 369.020,107.689 369.200,108.776 369.200 C 109.863 369.200,110.864 369.380,111.000 369.600 C 111.136 369.820,112.137 370.000,113.224 370.000 C 114.311 370.000,115.200 370.180,115.200 370.400 C 115.200 370.620,116.064 370.800,117.120 370.800 C 118.176 370.800,119.211 370.963,119.420 371.161 C 119.629 371.360,120.610 371.624,121.600 371.749 C 126.244 372.332,127.053 372.469,127.800 372.800 C 128.240 372.995,129.410 373.261,130.400 373.390 C 131.390 373.519,133.010 373.729,134.000 373.856 C 134.990 373.982,135.980 374.228,136.200 374.402 C 136.420 374.576,138.355 374.848,140.500 375.007 C 142.645 375.165,144.400 375.454,144.400 375.648 C 144.400 375.841,145.300 376.000,146.400 376.000 C 147.500 376.000,148.400 376.180,148.400 376.400 C 148.400 376.620,149.390 376.800,150.600 376.800 C 151.810 376.800,152.800 376.980,152.800 377.200 C 152.800 377.420,153.700 377.600,154.800 377.600 C 155.900 377.600,156.800 377.780,156.800 378.000 C 156.800 378.220,157.689 378.400,158.776 378.400 C 159.863 378.400,160.864 378.580,161.000 378.800 C 161.136 379.020,162.137 379.200,163.224 379.200 C 164.311 379.200,165.200 379.380,165.200 379.600 C 165.200 379.820,166.100 380.000,167.200 380.000 C 168.300 380.000,169.200 380.180,169.200 380.400 C 169.200 380.620,170.089 380.800,171.176 380.800 C 172.263 380.800,173.264 380.980,173.400 381.200 C 173.536 381.420,174.526 381.600,175.600 381.600 C 176.674 381.600,177.664 381.780,177.800 382.000 C 177.936 382.220,178.836 382.400,179.800 382.400 C 180.764 382.400,181.664 382.580,181.800 382.800 C 181.936 383.020,182.926 383.200,184.000 383.200 C 185.074 383.200,186.064 383.380,186.200 383.600 C 186.336 383.820,187.337 384.000,188.424 384.000 C 189.511 384.000,190.400 384.180,190.400 384.400 C 190.400 384.620,191.300 384.800,192.400 384.800 C 193.500 384.800,194.400 384.980,194.400 385.200 C 194.400 385.420,195.289 385.600,196.376 385.600 C 197.463 385.600,198.464 385.780,198.600 386.000 C 198.736 386.220,199.737 386.400,200.824 386.400 C 201.911 386.400,202.800 386.580,202.800 386.800 C 202.800 387.020,203.689 387.200,204.776 387.200 C 205.863 387.200,206.864 387.380,207.000 387.600 C 207.296 388.079,217.200 388.152,217.200 387.675 C 217.200 387.496,217.830 387.102,218.600 386.800 C 219.370 386.498,220.000 386.104,220.000 385.925 C 220.000 385.746,220.283 385.600,220.629 385.600 C 221.406 385.600,221.867 385.137,223.619 382.600 L 225.000 380.600 225.000 334.000 L 225.000 287.400 244.800 287.185 C 255.690 287.066,265.050 286.826,265.600 286.650 C 277.904 282.728,277.444 266.625,264.935 263.366 C 263.208 262.916,258.859 262.800,243.775 262.800 L 224.789 262.800 224.894 250.100 L 225.000 237.400 244.800 237.185 C 255.690 237.066,265.050 236.826,265.600 236.650 C 277.904 232.728,277.444 216.625,264.935 213.366 C 263.208 212.916,258.859 212.800,243.775 212.800 L 224.789 212.800 224.894 200.100 L 225.000 187.400 244.800 187.185 C 255.690 187.066,265.050 186.826,265.600 186.650 C 277.904 182.728,277.444 166.625,264.935 163.366 C 263.208 162.916,258.859 162.800,243.775 162.800 L 224.789 162.800 224.894 150.100 L 225.000 137.400 244.800 137.185 C 255.690 137.066,265.050 136.826,265.600 136.650 C 277.904 132.728,277.444 116.625,264.935 113.366 C 263.207 112.916,258.852 112.800,243.722 112.800 L 224.684 112.800 224.978 67.298 C 225.140 42.272,225.152 21.151,225.004 20.362 C 224.716 18.825,222.302 15.354,221.022 14.636 C 220.594 14.396,219.885 13.885,219.446 13.500 C 219.008 13.115,218.334 12.800,217.948 12.800 C 217.563 12.800,217.136 12.620,217.000 12.400 C 216.681 11.884,207.999 11.884,207.200 12.400 M309.800 113.380 C 297.211 117.119,297.490 133.409,310.200 136.772 C 312.733 137.442,337.683 137.328,340.290 136.634 C 352.842 133.292,352.461 116.678,339.754 113.245 C 337.445 112.621,311.968 112.736,309.800 113.380 M166.515 125.340 C 169.998 126.552,173.448 130.002,174.660 133.485 C 175.599 136.181,175.052 143.200,173.903 143.200 C 173.736 143.200,173.600 143.429,173.600 143.709 C 173.600 144.109,165.349 155.059,162.071 159.009 C 161.702 159.454,160.590 160.890,159.600 162.200 C 158.610 163.510,157.578 164.856,157.306 165.191 C 156.616 166.041,144.821 181.204,143.600 182.811 C 143.050 183.535,142.420 184.323,142.200 184.563 C 141.980 184.804,140.990 186.080,140.001 187.400 C 139.012 188.720,138.098 189.890,137.972 190.000 C 136.923 190.911,133.157 196.499,133.325 196.895 C 133.443 197.173,135.111 199.200,137.030 201.400 C 138.950 203.600,141.439 206.463,142.561 207.762 C 143.682 209.061,145.427 211.041,146.439 212.162 C 147.450 213.283,150.144 216.360,152.426 219.000 C 154.708 221.640,156.854 224.070,157.196 224.400 C 157.537 224.730,158.329 225.630,158.955 226.400 C 159.582 227.170,161.218 229.060,162.591 230.600 C 176.525 246.225,178.017 250.119,172.871 257.420 C 167.468 265.086,158.025 264.582,150.908 256.249 C 149.758 254.902,148.406 253.350,147.904 252.800 C 147.403 252.250,146.004 250.630,144.796 249.201 C 143.588 247.771,142.329 246.331,141.997 246.001 C 141.665 245.670,140.225 244.050,138.797 242.401 C 137.369 240.751,135.545 238.681,134.744 237.801 C 133.943 236.920,132.775 235.570,132.147 234.800 C 131.519 234.030,130.818 233.201,130.589 232.958 C 130.233 232.580,128.934 231.101,125.327 226.968 C 115.865 216.127,116.957 216.880,114.845 219.739 C 113.976 220.915,113.019 222.130,112.719 222.439 C 112.419 222.748,111.738 223.630,111.206 224.400 C 110.674 225.170,110.139 225.890,110.017 226.000 C 109.895 226.110,109.304 226.859,108.704 227.665 C 108.103 228.471,107.384 229.371,107.106 229.665 C 106.828 229.959,105.790 231.279,104.800 232.598 C 103.810 233.917,101.290 237.186,99.200 239.863 C 97.110 242.539,94.050 246.477,92.400 248.614 C 86.472 256.290,84.141 259.011,82.299 260.403 C 76.048 265.127,66.763 262.491,63.238 254.991 C 62.329 253.057,62.011 246.687,62.800 246.200 C 63.020 246.064,63.200 245.684,63.200 245.354 C 63.200 244.684,65.166 241.765,68.828 237.000 C 71.819 233.108,75.671 228.273,75.999 228.000 C 76.131 227.890,76.677 227.170,77.214 226.400 C 77.750 225.630,78.411 224.730,78.684 224.400 C 78.956 224.070,80.637 221.910,82.419 219.600 C 84.201 217.290,85.961 215.035,86.329 214.590 C 86.698 214.144,88.162 212.254,89.583 210.390 C 91.004 208.525,92.264 206.910,92.384 206.800 C 92.504 206.690,93.411 205.520,94.400 204.200 C 95.389 202.880,96.293 201.710,96.409 201.600 C 99.282 198.881,99.588 197.410,97.700 195.393 C 96.875 194.511,95.210 192.622,94.000 191.195 C 92.790 189.769,91.525 188.331,91.189 188.001 C 90.853 187.670,88.720 185.240,86.450 182.600 C 84.179 179.960,81.215 176.548,79.861 175.017 C 78.507 173.486,76.770 171.506,76.000 170.617 C 75.230 169.728,74.510 168.910,74.399 168.800 C 70.605 165.024,63.200 155.685,63.200 154.676 C 63.200 154.330,63.020 153.936,62.800 153.800 C 62.306 153.495,62.267 147.050,62.753 146.095 C 62.948 145.713,63.351 144.881,63.649 144.248 C 65.437 140.448,69.785 137.618,74.315 137.306 C 79.520 136.947,82.727 139.020,89.613 147.196 C 90.816 148.624,92.160 150.171,92.600 150.635 C 93.040 151.098,93.852 152.000,94.404 152.639 C 101.726 161.105,103.399 163.030,103.584 163.200 C 103.805 163.404,108.183 168.423,110.000 170.556 C 110.550 171.202,111.850 172.646,112.888 173.765 C 113.927 174.884,114.782 175.935,114.788 176.100 C 114.811 176.689,116.216 176.387,116.647 175.700 C 116.889 175.315,118.559 173.110,120.359 170.800 C 122.160 168.490,124.030 166.073,124.516 165.429 C 125.657 163.917,127.324 161.856,127.613 161.600 C 127.737 161.490,128.277 160.770,128.814 160.000 C 129.350 159.230,130.006 158.330,130.272 158.000 C 131.576 156.383,138.735 147.213,139.694 145.931 C 140.296 145.127,141.022 144.229,141.307 143.935 C 141.593 143.641,142.268 142.770,142.807 142.000 C 143.347 141.230,144.006 140.330,144.271 140.000 C 145.831 138.060,149.968 132.790,150.866 131.600 C 152.532 129.390,154.667 127.200,155.154 127.200 C 155.399 127.200,155.600 127.064,155.600 126.898 C 155.600 126.731,156.185 126.360,156.900 126.072 C 157.615 125.784,158.470 125.391,158.800 125.198 C 159.727 124.656,164.822 124.750,166.515 125.340 M309.800 163.380 C 297.211 167.119,297.490 183.409,310.200 186.772 C 312.733 187.442,337.683 187.328,340.290 186.634 C 352.842 183.292,352.461 166.678,339.754 163.245 C 337.445 162.621,311.968 162.736,309.800 163.380 M309.800 213.380 C 297.211 217.119,297.490 233.409,310.200 236.772 C 312.733 237.442,337.683 237.328,340.290 236.634 C 352.842 233.292,352.461 216.678,339.754 213.245 C 337.445 212.621,311.968 212.736,309.800 213.380 M309.800 263.380 C 297.211 267.119,297.490 283.409,310.200 286.772 C 312.733 287.442,337.683 287.328,340.290 286.634 C 352.842 283.292,352.461 266.678,339.754 263.245 C 337.445 262.621,311.968 262.736,309.800 263.380 " stroke="none" fill="#2d7d34" fill-rule="evenodd"></path><path id="path2" d="M224.897 87.500 L 224.800 112.800 243.780 112.800 C 258.860 112.800,263.208 112.916,264.935 113.366 C 277.444 116.625,277.904 132.728,265.600 136.650 C 265.050 136.826,255.690 137.066,244.800 137.185 L 225.000 137.400 224.894 150.100 L 224.789 162.800 243.775 162.800 C 258.859 162.800,263.208 162.916,264.935 163.366 C 277.444 166.625,277.904 182.728,265.600 186.650 C 265.050 186.826,255.690 187.066,244.800 187.185 L 225.000 187.400 224.894 200.100 L 224.789 212.800 243.775 212.800 C 258.859 212.800,263.208 212.916,264.935 213.366 C 277.444 216.625,277.904 232.728,265.600 236.650 C 265.050 236.826,255.690 237.066,244.800 237.185 L 225.000 237.400 224.894 250.100 L 224.789 262.800 243.775 262.800 C 258.859 262.800,263.208 262.916,264.935 263.366 C 277.444 266.625,277.904 282.728,265.600 286.650 C 265.050 286.826,255.690 287.066,244.800 287.185 L 225.000 287.400 224.995 312.500 L 224.991 337.600 225.098 312.600 L 225.206 287.600 245.103 287.594 C 266.126 287.588,266.224 287.580,269.293 285.672 C 273.772 282.887,276.469 275.989,274.749 271.719 C 272.976 267.315,271.135 265.110,268.141 263.805 C 267.294 263.435,266.287 262.968,265.905 262.766 C 265.512 262.559,256.546 262.400,245.205 262.400 L 225.200 262.400 225.200 250.000 L 225.200 237.600 245.100 237.594 C 266.126 237.588,266.224 237.580,269.293 235.672 C 273.772 232.887,276.469 225.989,274.749 221.719 C 272.976 217.315,271.135 215.110,268.141 213.805 C 267.294 213.435,266.287 212.968,265.905 212.766 C 265.512 212.559,256.546 212.400,245.205 212.400 L 225.200 212.400 225.200 200.000 L 225.200 187.600 245.100 187.594 C 266.126 187.588,266.224 187.580,269.293 185.672 C 273.772 182.887,276.469 175.989,274.749 171.719 C 272.976 167.315,271.135 165.110,268.141 163.805 C 267.294 163.435,266.287 162.968,265.905 162.766 C 265.512 162.559,256.546 162.400,245.205 162.400 L 225.200 162.400 225.200 150.000 L 225.200 137.600 245.100 137.594 C 259.855 137.590,265.362 137.460,266.400 137.094 C 271.575 135.268,275.200 130.288,275.200 125.004 C 275.200 122.938,275.047 122.350,273.705 119.259 C 272.827 117.234,270.664 115.053,268.519 114.029 C 267.464 113.525,266.287 112.952,265.905 112.756 C 265.523 112.560,256.210 112.400,245.208 112.400 L 225.206 112.400 225.100 87.300 L 224.994 62.200 224.897 87.500 M308.600 112.959 C 299.443 116.496,296.973 127.500,303.873 134.021 C 305.694 135.743,306.203 136.058,308.919 137.150 C 309.679 137.456,314.904 137.600,325.207 137.600 L 340.376 137.600 342.491 136.633 C 353.220 131.725,352.418 116.996,341.200 112.921 C 339.311 112.234,310.388 112.268,308.600 112.959 M339.754 113.245 C 352.461 116.678,352.842 133.292,340.290 136.634 C 337.683 137.328,312.733 137.442,310.200 136.772 C 301.858 134.565,298.086 126.140,302.222 118.955 C 303.853 116.122,306.078 114.485,309.800 113.380 C 311.968 112.736,337.445 112.621,339.754 113.245 M158.800 125.198 C 158.470 125.391,157.615 125.784,156.900 126.072 C 156.185 126.360,155.600 126.731,155.600 126.898 C 155.600 127.064,155.399 127.200,155.154 127.200 C 154.667 127.200,152.532 129.390,150.866 131.600 C 149.968 132.790,145.831 138.060,144.271 140.000 C 144.006 140.330,143.347 141.230,142.807 142.000 C 142.268 142.770,141.593 143.641,141.307 143.935 C 141.022 144.229,140.296 145.127,139.694 145.931 C 138.735 147.213,131.576 156.383,130.272 158.000 C 130.006 158.330,129.350 159.230,128.814 160.000 C 128.277 160.770,127.737 161.490,127.613 161.600 C 127.324 161.856,125.657 163.917,124.516 165.429 C 124.030 166.073,122.160 168.490,120.359 170.800 C 118.559 173.110,116.889 175.315,116.647 175.700 C 116.216 176.387,114.811 176.689,114.788 176.100 C 114.782 175.935,113.927 174.884,112.888 173.765 C 111.850 172.646,110.550 171.202,110.000 170.556 C 108.183 168.423,103.805 163.404,103.584 163.200 C 103.399 163.030,101.726 161.105,94.404 152.639 C 93.852 152.000,93.040 151.098,92.600 150.635 C 92.160 150.171,90.816 148.624,89.613 147.196 C 82.727 139.020,79.520 136.947,74.315 137.306 C 69.785 137.618,65.437 140.448,63.649 144.248 C 63.351 144.881,62.948 145.713,62.753 146.095 C 62.267 147.050,62.306 153.495,62.800 153.800 C 63.020 153.936,63.200 154.330,63.200 154.676 C 63.200 155.685,70.605 165.024,74.399 168.800 C 74.510 168.910,75.230 169.728,76.000 170.617 C 76.770 171.506,78.507 173.486,79.861 175.017 C 81.215 176.548,84.179 179.960,86.450 182.600 C 88.720 185.240,90.853 187.670,91.189 188.001 C 91.525 188.331,92.790 189.769,94.000 191.195 C 95.210 192.622,96.875 194.511,97.700 195.393 C 99.588 197.410,99.282 198.881,96.409 201.600 C 96.293 201.710,95.389 202.880,94.400 204.200 C 93.411 205.520,92.504 206.690,92.384 206.800 C 92.264 206.910,91.004 208.525,89.583 210.390 C 88.162 212.254,86.698 214.144,86.329 214.590 C 85.961 215.035,84.201 217.290,82.419 219.600 C 80.637 221.910,78.956 224.070,78.684 224.400 C 78.411 224.730,77.750 225.630,77.214 226.400 C 76.677 227.170,76.131 227.890,75.999 228.000 C 75.671 228.273,71.819 233.108,68.828 237.000 C 65.166 241.765,63.200 244.684,63.200 245.354 C 63.200 245.684,63.020 246.064,62.800 246.200 C 62.011 246.687,62.329 253.057,63.238 254.991 C 66.763 262.491,76.048 265.127,82.299 260.403 C 84.141 259.011,86.472 256.290,92.400 248.614 C 94.050 246.477,97.110 242.539,99.200 239.863 C 101.290 237.186,103.810 233.917,104.800 232.598 C 105.790 231.279,106.828 229.959,107.106 229.665 C 107.384 229.371,108.103 228.471,108.704 227.665 C 109.304 226.859,109.895 226.110,110.017 226.000 C 110.139 225.890,110.674 225.170,111.206 224.400 C 111.738 223.630,112.419 222.748,112.719 222.439 C 113.019 222.130,113.976 220.915,114.845 219.739 C 116.957 216.880,115.865 216.127,125.327 226.968 C 128.934 231.101,130.233 232.580,130.589 232.958 C 130.818 233.201,131.519 234.030,132.147 234.800 C 132.775 235.570,133.943 236.920,134.744 237.801 C 135.545 238.681,137.369 240.751,138.797 242.401 C 140.225 244.050,141.665 245.670,141.997 246.001 C 142.329 246.331,143.588 247.771,144.796 249.201 C 146.004 250.630,147.403 252.250,147.904 252.800 C 148.406 253.350,149.758 254.902,150.908 256.249 C 158.025 264.582,167.468 265.086,172.871 257.420 C 178.017 250.119,176.525 246.225,162.591 230.600 C 161.218 229.060,159.582 227.170,158.955 226.400 C 158.329 225.630,157.537 224.730,157.196 224.400 C 156.854 224.070,154.708 221.640,152.426 219.000 C 150.144 216.360,147.450 213.283,146.439 212.162 C 145.427 211.041,143.682 209.061,142.561 207.762 C 141.439 206.463,138.950 203.600,137.030 201.400 C 135.111 199.200,133.443 197.173,133.325 196.895 C 133.157 196.499,136.923 190.911,137.972 190.000 C 138.098 189.890,139.012 188.720,140.001 187.400 C 140.990 186.080,141.980 184.804,142.200 184.563 C 142.420 184.323,143.050 183.535,143.600 182.811 C 144.821 181.204,156.616 166.041,157.306 165.191 C 157.578 164.856,158.610 163.510,159.600 162.200 C 160.590 160.890,161.702 159.454,162.071 159.009 C 165.349 155.059,173.600 144.109,173.600 143.709 C 173.600 143.429,173.736 143.200,173.903 143.200 C 175.052 143.200,175.599 136.181,174.660 133.485 C 172.526 127.356,163.330 122.550,158.800 125.198 M166.647 126.052 C 171.620 127.912,175.042 133.069,174.722 138.220 C 174.503 141.751,173.244 143.909,165.981 153.200 C 162.455 157.710,159.172 161.923,158.685 162.561 C 158.198 163.200,156.086 165.900,153.990 168.561 C 151.895 171.223,149.015 174.925,147.590 176.790 C 146.166 178.654,144.783 180.454,144.519 180.790 C 143.221 182.434,140.027 186.541,138.600 188.400 C 137.720 189.546,135.946 191.818,134.659 193.449 C 131.959 196.868,131.882 196.375,135.801 200.800 C 138.703 204.077,138.561 203.916,148.588 215.400 C 153.198 220.680,157.071 225.090,157.195 225.200 C 157.319 225.310,159.123 227.380,161.204 229.800 C 163.285 232.220,165.651 234.920,166.461 235.800 C 174.473 244.502,176.099 248.497,173.959 254.218 C 171.766 260.078,165.028 263.705,159.560 261.968 C 155.789 260.770,154.799 259.936,148.439 252.600 C 146.150 249.960,143.450 246.883,142.439 245.762 C 141.427 244.641,139.610 242.578,138.400 241.179 C 135.126 237.391,124.270 224.980,121.622 221.997 C 120.351 220.565,118.820 218.810,118.220 218.097 C 117.620 217.384,116.992 216.800,116.826 216.800 C 116.501 216.800,110.480 224.366,101.707 235.800 C 98.214 240.353,97.399 241.401,97.199 241.600 C 97.088 241.710,96.189 242.880,95.200 244.200 C 94.211 245.520,93.306 246.690,93.190 246.800 C 93.073 246.910,91.163 249.340,88.946 252.200 C 83.704 258.961,83.034 259.642,80.325 260.961 C 72.042 264.996,62.983 259.261,63.010 250.000 C 63.023 245.602,63.467 244.723,69.708 236.753 C 72.399 233.318,75.050 229.917,75.600 229.196 C 76.150 228.475,79.348 224.356,82.706 220.042 C 86.065 215.729,90.115 210.517,91.706 208.459 C 93.298 206.402,94.784 204.512,95.009 204.259 C 98.229 200.646,100.457 197.063,99.690 196.733 C 99.519 196.660,96.866 193.720,93.793 190.200 C 90.721 186.680,88.116 183.710,88.004 183.600 C 87.892 183.490,86.630 182.050,85.200 180.400 C 83.770 178.750,82.128 176.860,81.550 176.200 C 80.973 175.540,79.015 173.290,77.199 171.200 C 75.383 169.110,73.336 166.768,72.649 165.997 C 71.962 165.225,70.230 163.247,68.800 161.601 C 67.370 159.955,65.893 158.266,65.517 157.847 C 60.626 152.396,62.899 142.096,69.659 139.078 C 76.799 135.890,80.443 137.434,89.000 147.275 C 91.640 150.311,94.250 153.296,94.800 153.909 C 95.350 154.521,96.969 156.367,98.399 158.011 C 99.828 159.655,101.268 161.304,101.599 161.675 C 101.929 162.046,105.080 165.677,108.600 169.745 C 114.594 176.670,116.027 177.931,116.511 176.700 C 116.619 176.425,117.943 174.654,119.454 172.764 C 120.964 170.874,122.650 168.734,123.200 168.008 C 124.841 165.842,129.922 159.311,133.787 154.400 C 135.778 151.870,138.215 148.753,139.203 147.474 C 140.191 146.195,141.810 144.105,142.800 142.830 C 143.790 141.555,146.310 138.298,148.400 135.592 C 153.685 128.748,154.305 128.069,156.162 127.084 C 160.038 125.030,163.107 124.727,166.647 126.052 M308.600 162.959 C 299.443 166.496,296.973 177.500,303.873 184.021 C 305.694 185.743,306.203 186.058,308.919 187.150 C 309.679 187.456,314.904 187.600,325.207 187.600 L 340.376 187.600 342.491 186.633 C 353.220 181.725,352.418 166.996,341.200 162.921 C 339.311 162.234,310.388 162.268,308.600 162.959 M339.754 163.245 C 352.461 166.678,352.842 183.292,340.290 186.634 C 337.683 187.328,312.733 187.442,310.200 186.772 C 301.858 184.565,298.086 176.140,302.222 168.955 C 303.853 166.122,306.078 164.485,309.800 163.380 C 311.968 162.736,337.445 162.621,339.754 163.245 M308.600 212.959 C 299.443 216.496,296.973 227.500,303.873 234.021 C 305.694 235.743,306.203 236.058,308.919 237.150 C 309.679 237.456,314.904 237.600,325.207 237.600 L 340.376 237.600 342.491 236.633 C 353.220 231.725,352.418 216.996,341.200 212.921 C 339.311 212.234,310.388 212.268,308.600 212.959 M339.754 213.245 C 352.461 216.678,352.842 233.292,340.290 236.634 C 337.683 237.328,312.733 237.442,310.200 236.772 C 301.858 234.565,298.086 226.140,302.222 218.955 C 303.853 216.122,306.078 214.485,309.800 213.380 C 311.968 212.736,337.445 212.621,339.754 213.245 M308.600 262.959 C 299.443 266.496,296.973 277.500,303.873 284.021 C 305.694 285.743,306.203 286.058,308.919 287.150 C 309.679 287.456,314.904 287.600,325.207 287.600 L 340.376 287.600 342.491 286.633 C 353.220 281.725,352.418 266.996,341.200 262.921 C 339.311 262.234,310.388 262.268,308.600 262.959 M339.754 263.245 C 352.461 266.678,352.842 283.292,340.290 286.634 C 337.683 287.328,312.733 287.442,310.200 286.772 C 301.858 284.565,298.086 276.140,302.222 268.955 C 303.853 266.122,306.078 264.485,309.800 263.380 C 311.968 262.736,337.445 262.621,339.754 263.245 " stroke="none" fill="#7bae7d" fill-rule="evenodd"></path></g></svg>